<svg width="123" height="123" viewBox="0 0 123 123" fill="none" xmlns="http://www.w3.org/2000/svg">
<circle cx="1.70103" cy="26.8642" r="1.38889" transform="rotate(-15 1.70103 26.8642)" fill="#FF8906"/>
<circle cx="15.1169" cy="23.2694" r="1.38889" transform="rotate(-15 15.1169 23.2694)" fill="#FF8906"/>
<circle cx="28.5321" cy="19.6748" r="1.38889" transform="rotate(-15 28.5321 19.6748)" fill="#FF8906"/>
<circle cx="41.9479" cy="16.0801" r="1.38889" transform="rotate(-15 41.9479 16.0801)" fill="#FF8906"/>
<circle cx="55.3638" cy="12.4853" r="1.38889" transform="rotate(-15 55.3638 12.4853)" fill="#FF8906"/>
<circle cx="68.779" cy="8.89069" r="1.38889" transform="rotate(-15 68.779 8.89069)" fill="#FF8906"/>
<circle cx="82.1949" cy="5.29591" r="1.38889" transform="rotate(-15 82.1949 5.29591)" fill="#FF8906"/>
<circle cx="95.6107" cy="1.70115" r="1.38889" transform="rotate(-15 95.6107 1.70115)" fill="#FF8906"/>
<circle cx="5.29573" cy="40.2798" r="1.38889" transform="rotate(-15 5.29573 40.2798)" fill="#FF8906"/>
<circle cx="18.7116" cy="36.685" r="1.38889" transform="rotate(-15 18.7116 36.685)" fill="#FF8906"/>
<circle cx="32.1268" cy="33.0904" r="1.38889" transform="rotate(-15 32.1268 33.0904)" fill="#FF8906"/>
<circle cx="45.5426" cy="29.4956" r="1.38889" transform="rotate(-15 45.5426 29.4956)" fill="#FF8906"/>
<circle cx="58.9585" cy="25.9009" r="1.38889" transform="rotate(-15 58.9585 25.9009)" fill="#FF8906"/>
<circle cx="72.3736" cy="22.3063" r="1.38889" transform="rotate(-15 72.3736 22.3063)" fill="#FF8906"/>
<circle cx="85.7895" cy="18.7115" r="1.38889" transform="rotate(-15 85.7895 18.7115)" fill="#FF8906"/>
<circle cx="99.2054" cy="15.1167" r="1.38889" transform="rotate(-15 99.2054 15.1167)" fill="#FF8906"/>
<circle cx="8.89046" cy="53.6955" r="1.38889" transform="rotate(-15 8.89046 53.6955)" fill="#FF8906"/>
<circle cx="22.3064" cy="50.1007" r="1.38889" transform="rotate(-15 22.3064 50.1007)" fill="#FF8906"/>
<circle cx="35.7215" cy="46.5061" r="1.38889" transform="rotate(-15 35.7215 46.5061)" fill="#FF8906"/>
<circle cx="49.1374" cy="42.9114" r="1.38889" transform="rotate(-15 49.1374 42.9114)" fill="#FF8906"/>
<circle cx="62.5533" cy="39.3166" r="1.38889" transform="rotate(-15 62.5533 39.3166)" fill="#FF8906"/>
<circle cx="75.9684" cy="35.722" r="1.38889" transform="rotate(-15 75.9684 35.722)" fill="#FF8906"/>
<circle cx="89.3843" cy="32.1272" r="1.38889" transform="rotate(-15 89.3843 32.1272)" fill="#FF8906"/>
<circle cx="102.8" cy="28.5324" r="1.38889" transform="rotate(-15 102.8 28.5324)" fill="#FF8906"/>
<circle cx="12.4852" cy="67.1111" r="1.38889" transform="rotate(-15 12.4852 67.1111)" fill="#FF8906"/>
<circle cx="25.901" cy="63.5163" r="1.38889" transform="rotate(-15 25.901 63.5163)" fill="#FF8906"/>
<circle cx="39.3162" cy="59.9217" r="1.38889" transform="rotate(-15 39.3162 59.9217)" fill="#FF8906"/>
<circle cx="52.7321" cy="56.3269" r="1.38889" transform="rotate(-15 52.7321 56.3269)" fill="#FF8906"/>
<circle cx="66.1479" cy="52.7322" r="1.38889" transform="rotate(-15 66.1479 52.7322)" fill="#FF8906"/>
<circle cx="79.5631" cy="49.1376" r="1.38889" transform="rotate(-15 79.5631 49.1376)" fill="#FF8906"/>
<circle cx="92.979" cy="45.5428" r="1.38889" transform="rotate(-15 92.979 45.5428)" fill="#FF8906"/>
<circle cx="106.395" cy="41.9481" r="1.38889" transform="rotate(-15 106.395 41.9481)" fill="#FF8906"/>
<circle cx="16.0798" cy="80.5267" r="1.38889" transform="rotate(-15 16.0798 80.5267)" fill="#FF8906"/>
<circle cx="29.4957" cy="76.9319" r="1.38889" transform="rotate(-15 29.4957 76.9319)" fill="#FF8906"/>
<circle cx="42.9109" cy="73.3373" r="1.38889" transform="rotate(-15 42.9109 73.3373)" fill="#FF8906"/>
<circle cx="56.3268" cy="69.7426" r="1.38889" transform="rotate(-15 56.3268 69.7426)" fill="#FF8906"/>
<circle cx="69.7427" cy="66.1478" r="1.38889" transform="rotate(-15 69.7427 66.1478)" fill="#FF8906"/>
<circle cx="83.1578" cy="62.5532" r="1.38889" transform="rotate(-15 83.1578 62.5532)" fill="#FF8906"/>
<circle cx="96.5737" cy="58.9584" r="1.38889" transform="rotate(-15 96.5737 58.9584)" fill="#FF8906"/>
<circle cx="109.99" cy="55.3637" r="1.38889" transform="rotate(-15 109.99 55.3637)" fill="#FF8906"/>
<circle cx="19.6746" cy="93.9424" r="1.38889" transform="rotate(-15 19.6746 93.9424)" fill="#FF8906"/>
<circle cx="33.0904" cy="90.3476" r="1.38889" transform="rotate(-15 33.0904 90.3476)" fill="#FF8906"/>
<circle cx="46.5056" cy="86.753" r="1.38889" transform="rotate(-15 46.5056 86.753)" fill="#FF8906"/>
<circle cx="59.9215" cy="83.1582" r="1.38889" transform="rotate(-15 59.9215 83.1582)" fill="#FF8906"/>
<circle cx="73.3374" cy="79.5635" r="1.38889" transform="rotate(-15 73.3374 79.5635)" fill="#FF8906"/>
<circle cx="86.7525" cy="75.9689" r="1.38889" transform="rotate(-15 86.7525 75.9689)" fill="#FF8906"/>
<circle cx="100.168" cy="72.3741" r="1.38889" transform="rotate(-15 100.168 72.3741)" fill="#FF8906"/>
<circle cx="113.584" cy="68.7794" r="1.38889" transform="rotate(-15 113.584 68.7794)" fill="#FF8906"/>
<circle cx="23.2693" cy="107.358" r="1.38889" transform="rotate(-15 23.2693 107.358)" fill="#FF8906"/>
<circle cx="36.6852" cy="103.763" r="1.38889" transform="rotate(-15 36.6852 103.763)" fill="#FF8906"/>
<circle cx="50.1003" cy="100.169" r="1.38889" transform="rotate(-15 50.1003 100.169)" fill="#FF8906"/>
<circle cx="63.5162" cy="96.5739" r="1.38889" transform="rotate(-15 63.5162 96.5739)" fill="#FF8906"/>
<circle cx="76.9321" cy="92.9791" r="1.38889" transform="rotate(-15 76.9321 92.9791)" fill="#FF8906"/>
<circle cx="90.3472" cy="89.3845" r="1.38889" transform="rotate(-15 90.3472 89.3845)" fill="#FF8906"/>
<circle cx="103.763" cy="85.7897" r="1.38889" transform="rotate(-15 103.763 85.7897)" fill="#FF8906"/>
<circle cx="117.179" cy="82.195" r="1.38889" transform="rotate(-15 117.179 82.195)" fill="#FF8906"/>
<circle cx="26.864" cy="120.774" r="1.38889" transform="rotate(-15 26.864 120.774)" fill="#FF8906"/>
<circle cx="40.2799" cy="117.179" r="1.38889" transform="rotate(-15 40.2799 117.179)" fill="#FF8906"/>
<circle cx="53.695" cy="113.584" r="1.38889" transform="rotate(-15 53.695 113.584)" fill="#FF8906"/>
<circle cx="67.1109" cy="109.989" r="1.38889" transform="rotate(-15 67.1109 109.989)" fill="#FF8906"/>
<circle cx="80.5268" cy="106.395" r="1.38889" transform="rotate(-15 80.5268 106.395)" fill="#FF8906"/>
<circle cx="93.9419" cy="102.8" r="1.38889" transform="rotate(-15 93.9419 102.8)" fill="#FF8906"/>
<circle cx="107.358" cy="99.2054" r="1.38889" transform="rotate(-15 107.358 99.2054)" fill="#FF8906"/>
<circle cx="120.774" cy="95.6106" r="1.38889" transform="rotate(-15 120.774 95.6106)" fill="#FF8906"/>
</svg>
