<svg width="216" height="81" fill="none" xmlns="http://www.w3.org/2000/svg"><path d="M1 1l11.515 11.515c4.686 4.686 12.284 4.686 16.97 0l3.03-3.03c4.686-4.686 12.284-4.686 16.97 0l3.03 3.03c4.686 4.686 12.284 4.686 16.97 0l3.03-3.03c4.686-4.686 12.284-4.686 16.97 0l3.03 3.03c4.686 4.686 12.284 4.686 16.97 0l3.03-3.03c4.686-4.686 12.284-4.686 16.97 0l3.03 3.03c4.686 4.686 12.284 4.686 16.97 0l3.03-3.03c4.686-4.686 12.284-4.686 16.97 0L181 21M35 30.5l11.515 11.515c4.686 4.686 12.284 4.686 16.97 0l3.03-3.03c4.686-4.686 12.284-4.686 16.97 0l3.03 3.03c4.686 4.686 12.284 4.686 16.97 0l3.03-3.03c4.686-4.686 12.284-4.686 16.97 0l3.03 3.03c4.686 4.686 12.284 4.686 16.97 0l3.03-3.03c4.686-4.686 12.284-4.686 16.97 0l3.03 3.03c4.686 4.686 12.284 4.686 16.97 0l3.03-3.03c4.686-4.686 12.284-4.686 16.97 0L215 50.5M1 60l11.515 11.515c4.686 4.686 12.284 4.686 16.97 0l3.03-3.03c4.686-4.686 12.284-4.686 16.97 0l3.03 3.03c4.686 4.686 12.284 4.686 16.97 0l3.03-3.03c4.686-4.686 12.284-4.686 16.97 0l3.03 3.03c4.686 4.686 12.284 4.686 16.97 0l3.03-3.03c4.686-4.686 12.284-4.686 16.97 0l3.03 3.03c4.686 4.686 12.284 4.686 16.97 0l3.03-3.03c4.686-4.686 12.284-4.686 16.97 0L181 80" stroke="#F25F4C" stroke-width="2"/></svg>