<svg width="25" height="53" viewBox="0 0 25 53" fill="none" xmlns="http://www.w3.org/2000/svg">
<ellipse cx="12.5044" cy="26.3783" rx="11.85" ry="26.0565" fill="url(#paint0_linear_216_788)"/>
<path d="M18.4667 18.182C18.7008 19.0735 18.6694 20.1349 18.3845 20.9519L12.1298 38.899C11.8719 39.6391 11.4472 40.0164 11.0129 39.8331C10.5876 39.6532 10.2503 38.9715 10.1333 38.0547L9.20784 30.812L9.11146 30.0587L8.86295 29.4985L6.47317 24.1148C6.17058 23.4335 6.0707 22.4505 6.21251 21.5507C6.35287 20.6612 6.70489 20.0158 7.1389 19.8907L17.3347 16.9536C17.7989 16.8196 18.2327 17.2906 18.4667 18.182Z" fill="white"/>
<path d="M9.20776 30.812L10.1332 38.0547C10.2502 38.9716 10.5875 39.6532 11.0128 39.8331C11.4471 40.0165 11.8718 39.6391 12.1297 38.899L18.3844 20.9519C18.6693 20.1349 18.7007 19.0735 18.4666 18.182L9.11137 30.0587L9.20776 30.812Z" fill="white"/>
<path d="M12.9185 25.2256C13.0137 25.5881 12.9574 26.052 12.7923 26.2616L9.20793 30.812L9.11155 30.0586L8.86304 29.4984L12.4474 24.948C12.6125 24.7385 12.8233 24.8631 12.9185 25.2256Z" fill="url(#paint1_linear_216_788)"/>
<path d="M9.20785 30.8119L12.7922 26.2615C12.9573 26.052 13.0136 25.5881 12.9184 25.2256L9.11146 30.0586L9.20785 30.8119Z" fill="url(#paint2_linear_216_788)"/>
<defs>
<linearGradient id="paint0_linear_216_788" x1="17.4633" y1="1.78387" x2="-14.8957" y2="38.8648" gradientUnits="userSpaceOnUse">
<stop stop-color="#747DEF"/>
<stop offset="1" stop-color="#5E3BE1"/>
</linearGradient>
<linearGradient id="paint1_linear_216_788" x1="11.6267" y1="26.039" x2="12.6825" y2="27.0018" gradientUnits="userSpaceOnUse">
<stop stop-color="#747DEF"/>
<stop offset="1" stop-color="#5E3BE1"/>
</linearGradient>
<linearGradient id="paint2_linear_216_788" x1="11.7942" y1="26.6773" x2="12.3261" y2="27.1275" gradientUnits="userSpaceOnUse">
<stop stop-color="#747DEF"/>
<stop offset="1" stop-color="#5E3BE1"/>
</linearGradient>
</defs>
</svg>
