<svg width="1333" height="2099" fill="none" xmlns="http://www.w3.org/2000/svg"><path d="M1333 0H75.393v2019c0 28 0 42 5.45 52.7a49.969 49.969 0 0021.851 21.85c10.696 5.45 24.697 5.45 52.699 5.45H1253c28 0 42 0 52.7-5.45a49.94 49.94 0 0021.85-21.85c5.45-10.7 5.45-24.7 5.45-52.7V0z" fill="#fff"/><g opacity=".1"><mask id="a" style="mask-type:alpha" maskUnits="userSpaceOnUse" x="1053" y="0" width="280" height="1813"><path d="M1053.54.5h278.96v1732.38c0 14.01 0 24.49-.68 32.8-.68 8.31-2.03 14.41-4.72 19.68a49.472 49.472 0 01-21.63 21.63c-5.26 2.68-11.36 4.04-19.67 4.71-8.31.68-18.79.68-32.8.68h-119.96c-14.01 0-24.49 0-32.8-.68-8.31-.67-14.41-2.03-19.67-4.71a49.546 49.546 0 01-21.64-21.63c-2.68-5.27-4.03-11.37-4.71-19.68-.68-8.31-.68-18.79-.68-32.8V.5z" fill="url(#paint0_linear_216_2013)" stroke="#6246E5"/></mask><g mask="url(#a)" stroke="#6246E5"><path d="M1403.89 919.641c0 131.429-10.96 250.399-28.66 336.509-8.86 43.05-19.39 77.86-31.08 101.9-5.84 12.01-11.96 21.31-18.27 27.6-6.32 6.28-12.8 9.52-19.38 9.52-6.58 0-13.06-3.24-19.37-9.52-6.32-6.29-12.44-15.59-18.28-27.6-11.68-24.04-22.22-58.85-31.07-101.9-17.71-86.11-28.66-205.08-28.66-336.509s10.95-250.401 28.66-336.504c8.85-43.055 19.39-77.865 31.07-101.899 5.84-12.018 11.96-21.316 18.28-27.602 6.31-6.285 12.79-9.526 19.37-9.526 6.58 0 13.06 3.241 19.38 9.526 6.31 6.286 12.43 15.584 18.27 27.602 11.69 24.034 22.22 58.844 31.08 101.899 17.7 86.103 28.66 205.075 28.66 336.504z"/><path d="M1407.75 869.533c0 146.997-12.25 280.057-32.05 376.367-9.9 48.15-21.69 87.09-34.76 113.98-6.54 13.44-13.38 23.85-20.45 30.89-7.07 7.03-14.33 10.67-21.71 10.67-7.38 0-14.64-3.64-21.71-10.67-7.08-7.04-13.92-17.45-20.46-30.89-13.07-26.89-24.85-65.83-34.75-113.98-19.81-96.31-32.06-229.37-32.06-376.367 0-146.996 12.25-280.062 32.06-376.366 9.9-48.156 21.68-87.093 34.75-113.98 6.54-13.444 13.38-23.849 20.46-30.887 7.07-7.035 14.33-10.671 21.71-10.671 7.38 0 14.64 3.636 21.71 10.671 7.07 7.038 13.91 17.443 20.45 30.887 13.07 26.887 24.86 65.824 34.76 113.98 19.8 96.304 32.05 229.37 32.05 376.366z"/><path d="M1411.62 828.82c0 160.833-13.41 306.43-35.08 411.8-10.83 52.69-23.73 95.29-38.03 124.72-7.15 14.71-14.64 26.1-22.39 33.8-7.74 7.71-15.69 11.69-23.78 11.69-8.1 0-16.05-3.98-23.79-11.69-7.74-7.7-15.24-19.09-22.39-33.8-14.3-29.43-27.2-72.03-38.03-124.72-21.67-105.37-35.07-250.967-35.07-411.8s13.4-306.426 35.07-411.798c10.83-52.69 23.73-95.296 38.03-124.719 7.15-14.712 14.65-26.101 22.39-33.806 7.74-7.703 15.69-11.689 23.79-11.689 8.09 0 16.04 3.986 23.78 11.689 7.75 7.705 15.24 19.094 22.39 33.806 14.3 29.423 27.2 72.029 38.03 124.719 21.67 105.372 35.08 250.965 35.08 411.798z"/><path d="M1414.19 769.315c0 172.94-14.41 329.495-37.71 442.795-11.65 56.66-25.52 102.48-40.9 134.12-7.69 15.82-15.75 28.07-24.08 36.36-8.33 8.29-16.89 12.58-25.6 12.58-8.72 0-17.28-4.29-25.61-12.58-8.33-8.29-16.38-20.54-24.08-36.36-15.38-31.64-29.25-77.46-40.9-134.12-23.29-113.3-37.71-269.855-37.71-442.795 0-172.941 14.42-329.495 37.71-442.801 11.65-56.657 25.52-102.474 40.9-134.115 7.7-15.822 15.75-28.073 24.08-36.361 8.33-8.288 16.89-12.58 25.61-12.58 8.71 0 17.27 4.292 25.6 12.58 8.33 8.288 16.39 20.539 24.08 36.361 15.38 31.641 29.25 77.458 40.9 134.115 23.3 113.306 37.71 269.86 37.71 442.801z"/><path d="M1416.77 711.377c0 184.616-15.39 351.743-40.26 472.693-12.44 60.49-27.24 109.4-43.66 143.18-8.22 16.89-16.82 29.97-25.72 38.82-8.89 8.85-18.04 13.44-27.35 13.44-9.32 0-18.46-4.59-27.36-13.44-8.89-8.85-17.5-21.93-25.71-38.82-16.42-33.78-31.22-82.69-43.66-143.18-24.87-120.95-40.26-288.077-40.26-472.693 0-184.615 15.39-351.739 40.26-472.696 12.44-60.483 27.24-109.396 43.66-143.176 8.21-16.891 16.82-29.973 25.71-38.825 8.9-8.85 18.04-13.439 27.36-13.439 9.31 0 18.46 4.589 27.35 13.44 8.9 8.851 17.5 21.933 25.72 38.824 16.42 33.78 31.22 82.693 43.66 143.176 24.87 120.957 40.26 288.081 40.26 472.696z"/><path d="M1419.99 645.61c0 202.776-16.9 386.34-44.22 519.2-13.66 66.43-29.92 120.16-47.96 157.27-9.02 18.56-18.48 32.93-28.25 42.66-9.78 9.72-19.84 14.77-30.08 14.77-10.25 0-20.31-5.05-30.09-14.77-9.77-9.73-19.22-24.1-28.25-42.66-18.04-37.11-34.3-90.84-47.96-157.27-27.32-132.86-44.22-316.424-44.22-519.2 0-202.777 16.9-386.342 44.22-519.201 13.66-66.434 29.92-120.162 47.96-157.27 9.03-18.556 18.48-32.93 28.25-42.658 9.78-9.726 19.84-14.774 30.09-14.774 10.24 0 20.3 5.048 30.08 14.774 9.77 9.728 19.23 24.102 28.25 42.657 18.04 37.109 34.3 90.837 47.96 157.271 27.32 132.859 44.22 316.424 44.22 519.201z"/></g></g><g opacity=".1"><mask id="b" style="mask-type:alpha" maskUnits="userSpaceOnUse" x="0" y="237" width="510" height="1862"><path d="M508.521 237.734V2098.5H80c-14.01 0-24.487 0-32.8-.68-8.306-.68-14.407-2.03-19.673-4.72a49.435 49.435 0 01-21.632-21.63c-2.683-5.26-4.037-11.36-4.715-19.67-.68-8.31-.68-18.79-.68-32.8V317.234c0-14.01 0-24.487.68-32.8.678-8.306 2.032-14.407 4.715-19.673a49.5 49.5 0 0121.633-21.632c5.265-2.683 11.366-4.037 19.673-4.716 8.312-.679 18.79-.679 32.799-.679h428.521z" fill="url(#paint1_linear_216_2013)" stroke="#6246E5"/></mask><g mask="url(#b)" stroke="#6246E5"><path d="M250.805 2580.29c-9.05 0-17.94-4.46-26.584-13.08-8.646-8.61-17.01-21.35-24.993-37.79-15.964-32.89-30.355-80.5-42.445-139.38-24.179-117.76-39.138-280.46-39.138-460.19 0-179.72 14.959-342.42 39.138-460.18 12.09-58.88 26.481-106.5 42.445-139.38 7.983-16.44 16.347-29.18 24.993-37.79 8.644-8.62 17.534-13.08 26.584-13.08s17.94 4.46 26.584 13.08c8.646 8.61 17.01 21.35 24.993 37.79 15.964 32.88 30.355 80.5 42.445 139.38 24.179 117.76 39.138 280.46 39.138 460.18 0 179.73-14.959 342.43-39.138 460.19-12.09 58.88-26.481 106.49-42.445 139.38-7.983 16.44-16.347 29.18-24.993 37.79-8.644 8.62-17.534 13.08-26.584 13.08z"/><path d="M264.874 2605.98c-10.143 0-20.099-5-29.774-14.64-9.676-9.64-19.034-23.89-27.963-42.29-17.859-36.78-33.955-90.04-47.477-155.9-27.043-131.7-43.774-313.67-43.774-514.69 0-201.01 16.731-382.98 43.774-514.69 13.523-65.85 29.618-119.11 47.477-155.9 8.929-18.39 18.287-32.64 27.963-42.28 9.675-9.64 19.631-14.65 29.774-14.65s20.099 5.01 29.774 14.65c9.677 9.64 19.034 23.89 27.964 42.28 17.858 36.79 33.954 90.05 47.476 155.9 27.044 131.71 43.774 313.68 43.774 514.69 0 201.02-16.73 382.99-43.774 514.69-13.522 65.86-29.618 119.12-47.476 155.9-8.93 18.4-18.287 32.65-27.964 42.29-9.675 9.64-19.631 14.64-29.774 14.64z"/><path d="M276.306 2631.68c-11.114 0-22.019-5.48-32.61-16.03-10.592-10.56-20.833-26.16-30.604-46.28-19.542-40.26-37.153-98.53-51.949-170.59-29.589-144.1-47.895-343.2-47.895-563.14 0-219.93 18.306-419.03 47.895-563.14 14.796-72.05 32.407-130.33 51.949-170.59 9.771-20.12 20.012-35.72 30.604-46.27 10.591-10.56 21.496-16.04 32.61-16.04s22.019 5.48 32.61 16.04c10.592 10.55 20.833 26.15 30.604 46.27 19.542 40.26 37.153 98.54 51.949 170.59 29.589 144.11 47.895 343.21 47.895 563.14 0 219.94-18.306 419.04-47.895 563.14-14.796 72.06-32.408 130.33-51.949 170.59-9.771 20.13-20.012 35.72-30.604 46.28-10.591 10.55-21.496 16.03-32.61 16.03z"/><path d="M293.014 2648.81c-11.964 0-23.699-5.9-35.091-17.25-11.393-11.36-22.407-28.13-32.915-49.77-21.014-43.29-39.952-105.96-55.862-183.44-31.817-154.95-51.5-369.04-51.5-605.53 0-236.5 19.683-450.58 51.5-605.54 15.91-77.48 34.848-140.15 55.862-183.43 10.508-21.648 21.522-38.42 32.915-49.774 11.392-11.353 23.127-17.255 35.091-17.255 11.964 0 23.699 5.902 35.091 17.255 11.393 11.354 22.407 28.126 32.915 49.774 21.014 43.28 39.952 105.95 55.862 183.43 31.817 154.96 51.5 369.04 51.5 605.54 0 236.49-19.683 450.58-51.5 605.53-15.91 77.48-34.848 140.15-55.862 183.44-10.508 21.64-21.522 38.41-32.915 49.77-11.392 11.35-23.127 17.25-35.091 17.25z"/><path d="M309.281 2665.94c-12.783 0-25.318-6.31-37.483-18.43-12.166-12.12-23.926-30.03-35.144-53.14-22.434-46.21-42.651-113.11-59.635-195.83-33.965-165.41-54.977-393.95-54.977-646.41 0-252.46 21.012-481 54.977-646.41 16.984-82.71 37.201-149.616 59.635-195.829 11.218-23.107 22.978-41.015 35.144-53.139 12.165-12.123 24.7-18.43 37.483-18.43 12.784 0 25.318 6.307 37.483 18.43 12.167 12.124 23.926 30.032 35.144 53.139 22.435 46.213 42.652 113.119 59.635 195.829 33.966 165.41 54.978 393.95 54.978 646.41 0 252.46-21.012 481-54.978 646.41-16.983 82.72-37.2 149.62-59.635 195.83-11.218 23.11-22.977 41.02-35.144 53.14-12.165 12.12-24.699 18.43-37.483 18.43z"/><path d="M327.748 2687.35c-14.059 0-27.838-6.93-41.205-20.25-13.368-13.33-26.288-33-38.61-58.38-24.644-50.77-46.85-124.25-65.505-215.1-37.307-181.69-60.386-432.72-60.386-710.01 0-277.29 23.079-528.31 60.386-710.003 18.655-90.849 40.861-164.336 65.505-215.099 12.322-25.382 25.242-45.057 38.61-58.38 13.367-13.321 27.146-20.256 41.205-20.256 14.058 0 27.837 6.935 41.204 20.256 13.369 13.323 26.288 32.998 38.61 58.38 24.644 50.763 46.851 124.25 65.505 215.099 37.308 181.693 60.386 432.713 60.386 710.003s-23.078 528.32-60.386 710.01c-18.654 90.85-40.861 164.33-65.505 215.1-12.322 25.38-25.241 45.05-38.61 58.38-13.367 13.32-27.146 20.25-41.204 20.25z"/></g></g><defs><linearGradient id="paint0_linear_216_2013" x1="1251.6" y1="50.862" x2="483.676" y2="349.676" gradientUnits="userSpaceOnUse"><stop stop-color="#747DEF"/><stop offset="1" stop-color="#5E3BE1"/></linearGradient><linearGradient id="paint1_linear_216_2013" x1="494.74" y1="1557.67" x2="-135.852" y2="1489.25" gradientUnits="userSpaceOnUse"><stop stop-color="#747DEF"/><stop offset="1" stop-color="#5E3BE1"/></linearGradient></defs></svg>