<svg width="431" height="303" viewBox="0 0 431 303" fill="none" xmlns="http://www.w3.org/2000/svg">
<path d="M431 0H24.377V223C24.377 251.003 24.377 265.004 29.8267 275.7C34.6204 285.108 42.2694 292.757 51.6775 297.55C62.3731 303 76.3744 303 104.377 303H351C379.003 303 393.004 303 403.7 297.55C413.108 292.757 420.757 285.108 425.55 275.7C431 265.004 431 251.003 431 223V0Z" fill="white"/>
<g opacity="0.1">
<mask id="mask0_216_947" style="mask-type:alpha" maskUnits="userSpaceOnUse" x="340" y="0" width="91" height="262">
<path d="M340.98 0.5H430.5V216.438C430.5 241.158 410.46 261.198 385.74 261.198C361.02 261.198 340.98 241.158 340.98 216.438V0.5Z" fill="url(#paint0_linear_216_947)" stroke="#6246E5"/>
</mask>
<g mask="url(#mask0_216_947)">
<path d="M453.582 132.754C453.582 151.675 450.049 168.78 444.358 181.136C438.647 193.534 430.859 200.972 422.433 200.972C414.006 200.972 406.218 193.534 400.508 181.136C394.817 168.78 391.284 151.675 391.284 132.754C391.284 113.834 394.817 96.7291 400.508 84.3731C406.218 71.9742 414.006 64.5371 422.433 64.5371C430.859 64.5371 438.647 71.9742 444.358 84.3731C450.049 96.7291 453.582 113.834 453.582 132.754Z" stroke="#6246E5"/>
<path d="M454.831 125.521C454.831 146.688 450.879 165.828 444.51 179.656C438.121 193.528 429.396 201.876 419.934 201.876C410.473 201.876 401.748 193.528 395.359 179.656C388.99 165.828 385.038 146.688 385.038 125.521C385.038 104.353 388.99 85.2142 395.359 71.3855C401.748 57.5141 410.473 49.1661 419.934 49.1661C429.396 49.1661 438.121 57.5141 444.51 71.3855C450.879 85.2142 454.831 104.353 454.831 125.521Z" stroke="#6246E5"/>
<path d="M456.08 119.644C456.08 142.809 451.755 163.756 444.783 178.894C437.791 194.074 428.233 203.232 417.852 203.232C407.471 203.232 397.913 194.074 390.921 178.894C383.949 163.756 379.624 142.809 379.624 119.644C379.624 96.4789 383.949 75.5313 390.921 60.3937C397.913 45.2132 407.471 36.0557 417.852 36.0557C428.233 36.0557 437.791 45.2132 444.783 60.3937C451.755 75.5313 456.08 96.4789 456.08 119.644Z" stroke="#6246E5"/>
<path d="M456.913 111.054C456.913 135.967 452.262 158.497 444.762 174.78C437.243 191.105 426.956 200.971 415.77 200.971C404.584 200.971 394.297 191.105 386.778 174.78C379.278 158.497 374.627 135.967 374.627 111.054C374.627 86.1413 379.278 63.6114 386.778 47.3284C394.297 31.0026 404.584 21.1366 415.77 21.1366C426.956 21.1366 437.243 31.0026 444.762 47.3284C452.262 63.6114 456.913 86.1413 456.913 111.054Z" stroke="#6246E5"/>
<path d="M457.746 102.69C457.746 129.289 452.78 153.344 444.772 170.732C436.744 188.162 425.754 198.711 413.792 198.711C401.829 198.711 390.84 188.162 382.812 170.732C374.804 153.344 369.838 129.289 369.838 102.69C369.838 76.0925 374.804 52.0368 382.812 34.6493C390.84 17.219 401.829 6.66992 413.792 6.66992C425.754 6.66992 436.744 17.219 444.772 34.6493C452.78 52.0368 457.746 76.0925 457.746 102.69Z" stroke="#6246E5"/>
<path d="M458.787 93.1966C458.787 122.416 453.332 148.845 444.532 167.951C435.713 187.099 423.631 198.711 410.461 198.711C397.291 198.711 385.208 187.099 376.389 167.951C367.59 148.845 362.134 122.416 362.134 93.1966C362.134 63.977 367.59 37.5478 376.389 18.4423C385.208 -0.706026 397.291 -12.3177 410.461 -12.3177C423.631 -12.3177 435.713 -0.706026 444.532 18.4423C453.332 37.5478 458.787 63.977 458.787 93.1966Z" stroke="#6246E5"/>
</g>
</g>
<g opacity="0.1">
<mask id="mask1_216_947" style="mask-type:alpha" maskUnits="userSpaceOnUse" x="-1" y="34" width="166" height="269">
<path d="M164.082 34.7457L164.082 302.5L79.9999 302.5C65.9903 302.5 55.5132 302.5 47.2007 301.82C38.894 301.142 32.7929 299.788 27.5274 297.105C18.2133 292.359 10.6408 284.787 5.89509 275.473C3.21214 270.207 1.85813 264.106 1.17945 255.799C0.500286 247.487 0.499904 237.01 0.499905 223L0.499907 114.246C0.499907 100.236 0.500289 89.759 1.17946 81.4465C1.85814 73.1398 3.21214 67.0387 5.89508 61.7732C10.6408 52.4592 18.2133 44.8866 27.5274 40.1409C32.7929 37.458 38.894 36.1039 47.2007 35.4253C55.5132 34.7461 65.9903 34.7457 79.9999 34.7457L164.082 34.7457Z" fill="url(#paint1_linear_216_947)" stroke="#6246E5"/>
</mask>
<g mask="url(#mask1_216_947)">
<path d="M81.0928 372.049C69.4725 372.049 58.7925 361.786 50.9885 344.818C43.2043 327.893 38.3764 304.476 38.3764 278.583C38.3764 252.69 43.2043 229.273 50.9885 212.348C58.7925 195.38 69.4725 185.117 81.0928 185.117C92.7132 185.117 103.393 195.38 111.197 212.348C118.981 229.273 123.809 252.69 123.809 278.583C123.809 304.476 118.981 327.893 111.197 344.818C103.393 361.786 92.7132 372.049 81.0928 372.049Z" stroke="#6246E5"/>
<path d="M85.6421 375.758C72.6085 375.758 60.6491 364.25 51.919 345.268C43.2087 326.329 37.808 300.13 37.808 271.164C37.808 242.199 43.2087 216 51.919 197.061C60.6491 178.079 72.6085 166.571 85.6421 166.571C98.6757 166.571 110.635 178.079 119.365 197.061C128.076 216 133.476 242.199 133.476 271.165C133.476 300.13 128.076 326.329 119.365 345.268C110.635 364.25 98.6757 375.758 85.6421 375.758Z" stroke="#6246E5"/>
<path d="M89.3381 379.467C75.0483 379.467 61.9516 366.852 52.3983 346.08C42.8648 325.351 36.9549 296.68 36.9549 264.983C36.9549 233.286 42.8648 204.615 52.3983 183.886C61.9516 163.114 75.0483 150.499 89.3381 150.499C103.628 150.499 116.725 163.114 126.278 183.886C135.811 204.615 141.721 233.286 141.721 264.983C141.721 296.68 135.811 325.351 126.278 346.08C116.725 366.852 103.628 379.467 89.3381 379.467Z" stroke="#6246E5"/>
<path d="M94.7403 381.94C79.3514 381.94 65.2596 368.356 54.9859 346.018C44.7321 323.723 38.3767 292.888 38.3767 258.801C38.3767 224.714 44.7321 193.879 54.9859 171.584C65.2596 149.246 79.3514 135.662 94.7403 135.662C110.129 135.662 124.221 149.246 134.495 171.584C144.749 193.879 151.104 224.714 151.104 258.801C151.104 292.888 144.749 323.723 134.495 346.018C124.221 368.356 110.129 381.94 94.7403 381.94Z" stroke="#6246E5"/>
<path d="M100 384.412C83.5513 384.412 68.4999 369.894 57.5317 346.046C46.5832 322.241 39.7982 289.319 39.7982 252.928C39.7982 216.537 46.5832 183.615 57.5317 159.81C68.4999 135.961 83.5513 121.443 100 121.443C116.449 121.443 131.5 135.961 142.469 159.81C153.417 183.615 160.202 216.537 160.202 252.928C160.202 289.319 153.417 322.241 142.469 346.046C131.5 369.894 116.449 384.412 100 384.412Z" stroke="#6246E5"/>
<path d="M105.971 387.504C87.8733 387.504 71.3292 371.533 59.2805 345.335C47.2516 319.18 39.7983 283.013 39.7983 243.037C39.7983 203.061 47.2516 166.894 59.2805 140.739C71.3292 114.541 87.8733 98.5703 105.971 98.5703C124.069 98.5703 140.613 114.541 152.661 140.739C164.69 166.894 172.144 203.061 172.144 243.037C172.144 283.013 164.69 319.18 152.661 345.335C140.613 371.533 124.069 387.504 105.971 387.504Z" stroke="#6246E5"/>
</g>
</g>
<defs>
<linearGradient id="paint0_linear_216_947" x1="404.68" y1="7.34223" x2="242.209" y2="148.946" gradientUnits="userSpaceOnUse">
<stop stop-color="#747DEF"/>
<stop offset="1" stop-color="#5E3BE1"/>
</linearGradient>
<linearGradient id="paint1_linear_216_947" x1="159.965" y1="224.857" x2="-34.8204" y2="177.517" gradientUnits="userSpaceOnUse">
<stop stop-color="#747DEF"/>
<stop offset="1" stop-color="#5E3BE1"/>
</linearGradient>
</defs>
</svg>
