<svg width="612" height="452" viewBox="0 0 612 452" fill="none" xmlns="http://www.w3.org/2000/svg">
<path d="M0.888543 401.255C0.869872 428.869 23.2405 451.27 50.8547 451.289L576.341 451.644L576.647 0.408689L51.1599 0.0533849C23.5456 0.0347138 1.1447 22.4053 1.12603 50.0196L0.888543 401.255Z" fill="white"/>
<g opacity="0.1">
<mask id="mask0_243_212" style="mask-type:alpha" maskUnits="userSpaceOnUse" x="0" y="61" width="130" height="391">
<path d="M128.501 401.341C128.482 428.679 106.305 450.826 78.9673 450.808L1.35573 450.755L1.61857 62.0278L79.2301 62.0802C106.568 62.0987 128.715 84.2756 128.697 111.614L128.501 401.341Z" fill="url(#paint0_linear_243_212)" stroke="#6246E5"/>
</mask>
<g mask="url(#mask0_243_212)">
<path d="M-31.1789 253.533C-31.1599 225.326 -26.1374 199.816 -18.0528 181.38C-14.0102 172.161 -9.21177 164.732 -3.91097 159.617C1.38742 154.504 7.16289 151.723 13.182 151.727C19.2012 151.731 24.9729 154.52 30.2644 159.64C35.5582 164.763 40.3466 172.197 44.3768 181.422C52.4364 199.87 57.4244 225.386 57.4053 253.592C57.3862 281.799 52.3638 307.308 44.2792 325.745C40.2365 334.964 35.4381 342.392 30.1373 347.508C24.839 352.621 19.0635 355.402 13.0443 355.398C7.02518 355.394 1.25347 352.605 -4.03799 347.485C-9.33187 342.362 -14.1202 334.928 -18.1504 325.703C-26.21 307.255 -31.198 281.739 -31.1789 253.533Z" stroke="#6246E5"/>
<path d="M-32.9541 264.304C-32.9328 232.75 -27.3146 204.212 -18.2686 183.583C-13.7453 173.267 -8.37479 164.952 -2.43897 159.224C3.49442 153.498 9.96784 150.378 16.7194 150.383C23.4709 150.388 29.9401 153.516 35.8657 159.25C41.7938 164.986 47.153 173.309 51.6624 183.63C60.6805 204.271 66.2601 232.817 66.2388 264.371C66.2174 295.924 60.5992 324.463 51.5532 345.092C47.0299 355.407 41.6594 363.722 35.7236 369.45C29.7902 375.176 23.3168 378.296 16.5653 378.291C9.81374 378.287 3.34455 375.158 -2.5811 369.424C-8.50916 363.688 -13.8684 355.366 -18.3778 345.044C-27.3958 324.403 -32.9755 295.857 -32.9541 264.304Z" stroke="#6246E5"/>
<path d="M-34.7281 273.054C-34.7047 238.526 -28.5569 207.295 -18.6564 184.717C-13.7058 173.428 -7.8268 164.324 -1.32653 158.051C5.17133 151.78 12.2651 148.36 19.6677 148.365C27.0702 148.37 34.1594 151.8 40.6487 158.079C47.1405 164.361 53.0072 173.473 57.9425 184.769C67.8125 207.36 73.9181 238.6 73.8947 273.128C73.8714 307.656 67.7236 338.887 57.8231 361.465C52.8725 372.755 46.9934 381.858 40.4932 388.131C33.9953 394.402 26.9015 397.822 19.499 397.817C12.0965 397.812 5.00729 394.382 -1.48208 388.103C-7.97385 381.821 -13.8406 372.709 -18.7759 361.413C-28.6459 338.822 -34.7514 307.582 -34.7281 273.054Z" stroke="#6246E5"/>
<path d="M-35.9156 285.846C-35.8905 248.715 -29.2794 215.128 -18.6311 190.845C-13.3067 178.703 -6.98266 168.909 0.0115091 162.16C7.00326 155.412 14.6399 151.728 22.6121 151.734C30.5842 151.739 38.2159 155.433 45.1985 162.19C52.1835 168.949 58.4943 178.751 63.8023 190.901C74.4177 215.198 80.9835 248.794 80.9584 285.925C80.9332 323.056 74.3221 356.643 63.6738 380.926C58.3494 393.069 52.0254 402.862 45.0312 409.612C38.0394 416.359 30.4028 420.043 22.4306 420.038C14.4585 420.032 6.82684 416.338 -0.155783 409.581C-7.14082 402.822 -13.4516 393.02 -18.7596 380.871C-29.375 356.573 -35.9408 322.977 -35.9156 285.846Z" stroke="#6246E5"/>
<path d="M-37.1027 298.3C-37.0759 258.659 -30.0179 222.8 -18.6486 196.873C-12.9636 183.908 -6.21057 173.45 1.25987 166.24C8.72788 159.034 16.888 155.096 25.4094 155.101C33.9308 155.107 42.0856 159.056 49.5439 166.273C57.0045 173.492 63.7435 183.96 69.4109 196.932C80.7451 222.875 87.7546 258.744 87.7278 298.384C87.701 338.025 80.643 373.884 69.2737 399.812C63.5888 412.776 56.8357 423.235 49.3653 430.444C41.8972 437.651 33.7371 441.589 25.2157 441.583C16.6943 441.577 8.53951 437.628 1.08125 430.411C-6.37943 423.192 -13.1183 412.724 -18.7858 399.752C-30.12 373.809 -37.1295 337.941 -37.1027 298.3Z" stroke="#6246E5"/>
<path d="M-38.5858 312.438C-38.5564 268.893 -30.8033 229.499 -18.3124 201.014C-12.0666 186.771 -4.64614 175.277 3.56515 167.353C11.774 159.431 20.7484 155.098 30.1242 155.105C39.5001 155.111 48.4686 159.456 56.6667 167.389C64.8673 175.324 72.2723 186.828 78.4988 201.08C90.9511 229.582 98.6509 268.986 98.6215 312.53C98.592 356.075 90.839 395.469 78.3481 423.954C72.1023 438.197 64.6818 449.691 56.4705 457.615C48.2616 465.537 39.2873 469.87 29.9114 469.863C20.5356 469.857 11.5671 465.512 3.36891 457.579C-4.83165 449.644 -12.2366 438.14 -18.4631 423.888C-30.9155 395.386 -38.6152 355.983 -38.5858 312.438Z" stroke="#6246E5"/>
</g>
</g>
<g opacity="0.1">
<mask id="mask1_243_212" style="mask-type:alpha" maskUnits="userSpaceOnUse" x="377" y="0" width="235" height="401">
<path d="M427.946 400.044C400.608 400.026 378.461 377.849 378.48 350.511L378.716 0.774909L610.648 0.93175L610.411 350.668C610.393 378.006 588.216 400.153 560.878 400.134L427.946 400.044Z" fill="url(#paint1_linear_243_212)" stroke="#6246E5"/>
</mask>
<g mask="url(#mask1_243_212)">
<path d="M496.447 -102.719C504.727 -102.714 512.651 -98.8716 519.9 -91.8473C527.151 -84.8208 533.702 -74.6317 539.211 -62.0039C550.228 -36.7498 557.043 -1.83237 557.016 36.7577C556.99 75.3477 550.129 110.256 539.077 135.495C533.551 148.115 526.987 158.296 519.726 165.312C512.468 172.327 504.538 176.158 496.259 176.153C487.98 176.147 480.055 172.305 472.806 165.281C465.555 158.254 459.005 148.065 453.496 135.437C442.478 110.183 435.664 75.2657 435.69 36.6756C435.716 -1.91441 442.577 -36.8226 453.629 -62.0618C459.155 -74.6821 465.72 -84.8623 472.98 -91.8791C480.239 -98.8935 488.168 -102.725 496.447 -102.719Z" stroke="#6246E5"/>
<path d="M490.013 -108.247C499.292 -108.241 508.169 -103.935 516.284 -96.0712C524.401 -88.2054 531.731 -76.8024 537.894 -62.6748C550.221 -34.421 557.843 4.63987 557.814 47.806C557.784 90.9721 550.11 130.023 537.745 158.26C531.562 172.379 524.217 183.772 516.089 191.627C507.964 199.479 499.081 203.774 489.802 203.767C480.522 203.761 471.646 199.455 463.531 191.591C455.414 183.726 448.084 172.322 441.92 158.195C429.594 129.941 421.972 90.8802 422.001 47.7141C422.03 4.54802 429.705 -34.5025 442.07 -62.7396C448.252 -76.8589 455.598 -88.252 463.725 -96.1067C471.851 -103.959 480.733 -108.254 490.013 -108.247Z" stroke="#6246E5"/>
<path d="M484.785 -113.775C494.954 -113.769 504.677 -109.049 513.561 -100.44C522.448 -91.8284 530.471 -79.3463 537.217 -63.8854C550.706 -32.9652 559.046 9.77861 559.014 57.0123C558.982 104.246 550.585 146.979 537.053 177.88C530.287 193.332 522.247 205.803 513.349 214.403C504.452 223 494.723 227.706 484.554 227.7C474.386 227.693 464.663 222.973 455.778 214.364C446.891 205.752 438.868 193.27 432.123 177.81C418.634 146.889 410.293 104.145 410.325 56.9118C410.357 9.67806 418.755 -33.0545 432.287 -63.9564C439.053 -79.4081 447.093 -91.8793 455.991 -100.479C464.887 -109.076 474.617 -113.782 484.785 -113.775Z" stroke="#6246E5"/>
<path d="M477.142 -117.463C488.088 -117.456 498.552 -112.375 508.11 -103.113C517.671 -93.8488 526.3 -80.4226 533.554 -63.7952C548.062 -30.5419 557.03 15.4246 556.996 66.2175C556.962 117.01 547.931 162.965 533.378 196.198C526.102 212.816 517.454 226.231 507.881 235.482C498.311 244.731 487.84 249.797 476.894 249.79C465.948 249.782 455.484 244.702 445.925 235.44C436.365 226.176 427.736 212.749 420.482 196.122C405.974 162.869 397.006 116.902 397.04 66.1093C397.074 15.3165 406.105 -30.6379 420.657 -63.8715C427.934 -80.4891 436.581 -93.9037 446.154 -103.155C455.725 -112.404 466.196 -117.47 477.142 -117.463Z" stroke="#6246E5"/>
<path d="M469.701 -121.15C481.397 -121.142 492.575 -115.713 502.783 -105.822C512.993 -95.9285 522.206 -81.5918 529.951 -63.8394C545.44 -28.3364 555.015 20.7377 554.978 74.9626C554.942 129.187 545.301 178.249 529.764 213.731C521.995 231.472 512.762 245.797 502.538 255.677C492.317 265.554 481.132 270.968 469.435 270.96C457.739 270.952 446.561 265.523 436.353 255.632C426.143 245.738 416.929 231.401 409.185 213.649C393.695 178.146 384.121 129.072 384.158 74.8471C384.194 20.6222 393.835 -28.4389 409.372 -63.921C417.141 -81.6628 426.374 -95.9871 436.598 -105.867C446.819 -115.744 458.004 -121.158 469.701 -121.15Z" stroke="#6246E5"/>
<path d="M461.254 -125.759C474.117 -125.751 486.406 -119.78 497.624 -108.91C508.845 -98.0373 518.968 -82.2843 527.477 -62.7821C544.493 -23.7794 555.01 30.1286 554.969 89.6923C554.929 149.256 544.339 203.15 527.27 242.129C518.736 261.62 508.591 277.359 497.356 288.217C486.123 299.072 473.826 305.026 460.963 305.017C448.1 305.008 435.81 299.038 424.592 288.167C413.372 277.295 403.249 261.542 394.74 242.04C377.724 203.037 367.207 149.129 367.247 89.5653C367.288 30.0017 377.878 -23.892 394.946 -62.8718C403.481 -82.3624 413.626 -98.1017 424.861 -108.959C436.093 -119.814 448.391 -125.768 461.254 -125.759Z" stroke="#6246E5"/>
</g>
</g>
<defs>
<linearGradient id="paint0_linear_243_212" x1="38.1126" y1="440.346" x2="278.221" y2="241.74" gradientUnits="userSpaceOnUse">
<stop stop-color="#747DEF"/>
<stop offset="1" stop-color="#5E3BE1"/>
</linearGradient>
<linearGradient id="paint1_linear_243_212" x1="384.673" y1="116.652" x2="661.804" y2="180.859" gradientUnits="userSpaceOnUse">
<stop stop-color="#747DEF"/>
<stop offset="1" stop-color="#5E3BE1"/>
</linearGradient>
</defs>
</svg>
