<svg width="50" height="50" fill="none" xmlns="http://www.w3.org/2000/svg"><g clip-path="url(#clip0_2_358)"><path d="M11.816 25c0-9.84 6.541-18.467 15.81-21.162L29.39.398A25.275 25.275 0 0025 0C11.269 0 0 11.269 0 25s11.269 25 25 25a25.36 25.36 0 004.396-.398l-.313-3.152C19.046 44.267 11.816 35.35 11.816 25z" fill="#7CAEF8"/><path fill-rule="evenodd" clip-rule="evenodd" d="M30.68 3.154l6.625.225C45.068 7.744 50 15.919 50 25c0 1.463-.151 2.947-.41 4.39v-.001.006l-.03.263c-.351 1.875-1.035 3.75-1.855 5.566a9.539 9.539 0 01-.145.32c-.052.111-.104.222-.148.325v.03a.586.586 0 01-.058.117.582.582 0 00-.059.117c-.38.761-.82 1.494-1.26 2.226-.263.41-.556.82-.879 1.23-.205.323-.44.645-.703.968-.38.468-.762.908-1.201 1.347-1.7 1.875-3.72 3.457-5.918 4.717h-7.06c-5.215-2.988-9.258-7.822-11.192-13.506h-.059l-.254-.882a11.065 11.065 0 01-.125-.43l-.001-.006a17.628 17.628 0 01-.159-.577l-.252-.917h.03A24.925 24.925 0 0117.676 25v-.322l-.059.03.086-.884.002-.022V23.8c.01-.135.016-.266.023-.396.013-.267.026-.53.065-.805.012-.152.03-.298.052-.441l.065-.555h.03a24.402 24.402 0 013.5-9.786h-.16l1.079-1.366a25 25 0 01.766-1.007l.44-.556h.041c1.944-2.316 4.36-4.243 7.073-5.733z" fill="#5374E9"/><path d="M34.316 45.39c-6.24-2.548-11.045-7.939-12.86-14.413-.118-.41-.235-.85-.323-1.26A21.356 21.356 0 0120.606 25c0-.703.029-1.377.117-2.08A21.882 21.882 0 0125 11.816l.44-.556c2.285-2.871 5.36-5.186 8.876-6.65l2.989-1.231c-.82-.498-1.7-.938-2.608-1.318 0 0-.615-.235-.703-.264C32.53 1.211 31.124.703 29.658.44l-.264-.06-.263.06C17.383 2.666 8.887 13.047 8.887 25s8.496 22.334 20.244 24.56l.264.06.263-.06c1.465-.263 2.871-.77 4.336-1.357.088-.03.205-.088.293-.117l.498-.205a20.61 20.61 0 002.549-1.26l-3.018-1.23z" fill="#6C8DFF"/></g><defs><clipPath id="clip0_2_358"><path fill="#fff" d="M0 0h50v50H0z"/></clipPath></defs></svg>