<svg width="40" height="78" fill="none" xmlns="http://www.w3.org/2000/svg"><ellipse cx="19.84" cy="38.876" rx="19.158" ry="38.804" transform="rotate(-179.961 19.84 38.876)" fill="url(#paint0_linear_243_242)"/><path d="M10.192 51.075c-.378-1.328-.326-2.908.136-4.125l10.13-26.72c.417-1.102 1.104-1.663 1.806-1.39.688.268 1.232 1.284 1.42 2.65l1.49 10.787.154 1.121.402.835 3.858 8.02c.488 1.015.649 2.48.419 3.819-.228 1.324-.798 2.285-1.5 2.471l-16.486 4.363c-.75.199-1.452-.503-1.829-1.83z" fill="#fff"/><path d="M25.174 32.277l-1.49-10.788c-.188-1.365-.732-2.38-1.42-2.649-.701-.273-1.389.288-1.806 1.39l-10.13 26.72c-.462 1.217-.513 2.797-.136 4.125L25.328 33.4l-.154-1.122z" fill="#fff"/><path d="M19.17 40.591c-.154-.54-.063-1.23.204-1.542l5.8-6.772.154 1.122.402.834-5.8 6.772c-.266.312-.607.126-.76-.414z" fill="url(#paint1_linear_243_242)"/><path d="M25.174 32.277l-5.8 6.772c-.266.312-.358 1.002-.204 1.542l6.159-7.192-.155-1.122z" fill="url(#paint2_linear_243_242)"/><defs><linearGradient id="paint0_linear_243_242" x1="27.857" y1="2.249" x2="-19.644" y2="61.34" gradientUnits="userSpaceOnUse"><stop stop-color="#747DEF"/><stop offset="1" stop-color="#5E3BE1"/></linearGradient><linearGradient id="paint1_linear_243_242" x1="21.259" y1="39.382" x2="19.681" y2="37.818" gradientUnits="userSpaceOnUse"><stop stop-color="#747DEF"/><stop offset="1" stop-color="#5E3BE1"/></linearGradient><linearGradient id="paint2_linear_243_242" x1="20.988" y1="38.431" x2="20.189" y2="37.695" gradientUnits="userSpaceOnUse"><stop stop-color="#747DEF"/><stop offset="1" stop-color="#5E3BE1"/></linearGradient></defs></svg>