<svg width="72" height="53" fill="none" xmlns="http://www.w3.org/2000/svg"><ellipse cx="35.78" cy="26.378" rx="35.247" ry="26.056" fill="url(#paint0_linear_216_2040)"/><path d="M53.515 18.182c.696.892.603 1.953-.245 2.77L34.666 38.899c-.767.74-2.03 1.117-3.322.934-1.266-.18-2.269-.861-2.617-1.778l-2.753-7.243-.286-.753-.74-.56-7.108-5.384c-.9-.681-1.197-1.664-.775-2.564.418-.89 1.464-1.535 2.755-1.66l30.328-2.937c1.38-.134 2.67.337 3.367 1.228z" fill="#fff"/><path d="M25.975 30.812l2.752 7.243c.349.917 1.352 1.598 2.617 1.778 1.291.184 2.555-.194 3.322-.934l18.605-17.947c.847-.817.94-1.879.244-2.77L25.688 30.059l.287.753z" fill="#fff"/><path d="M37.012 25.226c.283.362.115.826-.376 1.036l-10.661 4.55-.287-.753-.739-.56 10.662-4.551c.49-.21 1.118-.085 1.4.278z" fill="url(#paint1_linear_216_2040)"/><path d="M25.975 30.812l10.661-4.55c.491-.21.659-.674.376-1.036l-11.324 4.833.287.753z" fill="url(#paint2_linear_216_2040)"/><defs><linearGradient id="paint0_linear_216_2040" x1="50.531" y1="1.784" x2="32.886" y2="61.927" gradientUnits="userSpaceOnUse"><stop stop-color="#747DEF"/><stop offset="1" stop-color="#5E3BE1"/></linearGradient><linearGradient id="paint1_linear_216_2040" x1="33.169" y1="26.039" x2="33.858" y2="27.906" gradientUnits="userSpaceOnUse"><stop stop-color="#747DEF"/><stop offset="1" stop-color="#5E3BE1"/></linearGradient><linearGradient id="paint2_linear_216_2040" x1="33.668" y1="26.677" x2="34.038" y2="27.609" gradientUnits="userSpaceOnUse"><stop stop-color="#747DEF"/><stop offset="1" stop-color="#5E3BE1"/></linearGradient></defs></svg>