<svg width="612" height="452" fill="none" xmlns="http://www.w3.org/2000/svg"><path d="M.889 401.255c-.02 27.614 22.352 50.015 49.966 50.034l525.486.355.306-451.235L51.16.053C23.546.035 1.145 22.405 1.126 50.02L.889 401.255z" fill="#fff"/><g opacity=".1"><mask id="a" style="mask-type:alpha" maskUnits="userSpaceOnUse" x="0" y="61" width="130" height="391"><path d="M128.501 401.341c-.019 27.338-22.196 49.485-49.534 49.467l-77.611-.053.263-388.727 77.611.052c27.338.019 49.485 22.196 49.467 49.534l-.196 289.727z" fill="url(#paint0_linear_243_212)" stroke="#6246E5"/></mask><g mask="url(#a)" stroke="#6246E5"><path d="M-31.179 253.533c.02-28.207 5.042-53.717 13.126-72.153 4.043-9.219 8.841-16.648 14.142-21.763 5.298-5.113 11.074-7.894 17.093-7.89 6.02.004 11.79 2.793 17.082 7.913 5.294 5.123 10.083 12.557 14.113 21.782 8.06 18.448 13.047 43.964 13.028 72.17-.019 28.207-5.041 53.716-13.126 72.153-4.043 9.219-8.84 16.647-14.142 21.763-5.298 5.113-11.073 7.894-17.093 7.89-6.019-.004-11.79-2.793-17.082-7.913-5.294-5.123-10.082-12.557-14.112-21.782-8.06-18.448-13.048-43.964-13.029-72.17z"/><path d="M-32.954 264.304c.021-31.554 5.64-60.092 14.685-80.721 4.524-10.316 9.894-18.631 15.83-24.359 5.933-5.726 12.407-8.846 19.158-8.841 6.752.005 13.221 3.133 19.147 8.867 5.928 5.736 11.287 14.059 15.796 24.38 9.019 20.641 14.598 49.187 14.577 80.741-.022 31.553-5.64 60.092-14.686 80.721-4.523 10.315-9.894 18.63-15.83 24.358-5.933 5.726-12.406 8.846-19.158 8.841-6.751-.004-13.22-3.133-19.146-8.867-5.928-5.736-11.287-14.058-15.797-24.38-9.018-20.641-14.597-49.187-14.576-80.74z"/><path d="M-34.728 273.054c.023-34.528 6.171-65.759 16.072-88.337 4.95-11.289 10.83-20.393 17.33-26.666 6.497-6.271 13.591-9.691 20.994-9.686 7.402.005 14.491 3.435 20.98 9.714 6.492 6.282 12.36 15.394 17.294 26.69 9.87 22.591 15.976 53.831 15.953 88.359-.024 34.528-6.171 65.759-16.072 88.337-4.95 11.29-10.83 20.393-17.33 26.666-6.498 6.271-13.592 9.691-20.994 9.686-7.402-.005-14.492-3.435-20.981-9.714-6.492-6.282-12.359-15.394-17.294-26.69-9.87-22.591-15.975-53.831-15.952-88.359z"/><path d="M-35.916 285.846c.025-37.131 6.637-70.718 17.285-95.001 5.324-12.142 11.648-21.936 18.643-28.685 6.991-6.748 14.628-10.432 22.6-10.426 7.972.005 15.604 3.699 22.587 10.456 6.985 6.759 13.295 16.561 18.603 28.711 10.616 24.297 17.182 57.893 17.156 95.024-.025 37.131-6.636 70.718-17.284 95.001-5.325 12.143-11.649 21.936-18.643 28.686-6.992 6.747-14.628 10.431-22.6 10.426-7.973-.006-15.604-3.7-22.587-10.457-6.985-6.759-13.296-16.561-18.604-28.71-10.615-24.298-17.18-57.894-17.156-95.025z"/><path d="M-37.103 298.3c.027-39.641 7.085-75.5 18.454-101.427C-12.964 183.908-6.21 173.45 1.26 166.24c7.468-7.206 15.628-11.144 24.15-11.139 8.52.006 16.676 3.955 24.134 11.172 7.46 7.219 14.2 17.687 19.867 30.659 11.334 25.943 18.344 61.812 18.317 101.452-.027 39.641-7.085 75.5-18.454 101.428-5.685 12.964-12.438 23.423-19.909 30.632-7.468 7.207-15.628 11.145-24.15 11.139-8.52-.006-16.675-3.955-24.134-11.172-7.46-7.219-14.2-17.687-19.867-30.659-11.334-25.943-18.343-61.811-18.317-101.452z"/><path d="M-38.586 312.438c.03-43.545 7.783-82.939 20.274-111.424 6.245-14.243 13.666-25.737 21.877-33.661 8.209-7.922 17.183-12.255 26.56-12.248 9.375.006 18.344 4.351 26.542 12.284 8.2 7.935 15.605 19.439 21.832 33.691 12.452 28.502 20.152 67.906 20.123 111.45-.03 43.545-7.783 82.939-20.274 111.424-6.246 14.243-13.666 25.737-21.877 33.661-8.21 7.922-17.184 12.255-26.56 12.248-9.375-.006-18.344-4.351-26.542-12.284-8.2-7.935-15.606-19.439-21.832-33.691-12.453-28.502-20.152-67.905-20.123-111.45z"/></g></g><g opacity=".1"><mask id="b" style="mask-type:alpha" maskUnits="userSpaceOnUse" x="377" y="0" width="235" height="401"><path d="M427.946 400.044c-27.338-.018-49.485-22.195-49.466-49.533L378.716.775l231.932.157-.237 349.736c-.018 27.338-22.195 49.485-49.533 49.466l-132.932-.09z" fill="url(#paint1_linear_243_212)" stroke="#6246E5"/></mask><g mask="url(#b)" stroke="#6246E5"><path d="M496.447-102.719c8.28.005 16.204 3.847 23.453 10.872 7.251 7.026 13.802 17.215 19.311 29.843 11.017 25.254 17.832 60.172 17.805 98.762-.026 38.59-6.887 73.498-17.939 98.737-5.526 12.62-12.09 22.801-19.351 29.817-7.258 7.015-15.188 10.846-23.467 10.841-8.279-.006-16.204-3.848-23.453-10.872-7.251-7.027-13.801-17.216-19.31-29.844-11.018-25.254-17.832-60.171-17.806-98.761.026-38.59 6.887-73.499 17.939-98.738 5.526-12.62 12.091-22.8 19.351-29.817 7.259-7.014 15.188-10.846 23.467-10.84z"/><path d="M490.013-108.247c9.279.006 18.156 4.312 26.271 12.176 8.117 7.866 15.447 19.269 21.61 33.396 12.327 28.254 19.949 67.315 19.92 110.481-.03 43.166-7.704 82.217-20.069 110.454-6.183 14.119-13.528 25.512-21.656 33.367-8.125 7.852-17.008 12.147-26.287 12.14-9.28-.006-18.156-4.312-26.271-12.176-8.117-7.865-15.447-19.269-21.611-33.396-12.326-28.254-19.948-67.315-19.919-110.48.029-43.167 7.704-82.218 20.069-110.455 6.182-14.119 13.528-25.512 21.655-33.367 8.126-7.852 17.008-12.147 26.288-12.14z"/><path d="M484.785-113.775c10.169.006 19.892 4.726 28.776 13.335 8.887 8.612 16.91 21.094 23.656 36.555 13.489 30.92 21.829 73.664 21.797 120.897-.032 47.234-8.429 89.967-21.961 120.868-6.766 15.452-14.806 27.923-23.704 36.523-8.897 8.597-18.626 13.303-28.795 13.297-10.168-.007-19.891-4.727-28.776-13.336-8.887-8.612-16.91-21.094-23.655-36.554-13.489-30.921-21.83-73.665-21.798-120.898.032-47.234 8.43-89.966 21.962-120.868 6.766-15.452 14.806-27.923 23.704-36.523 8.896-8.597 18.626-13.303 28.794-13.296z"/><path d="M477.142-117.463c10.946.007 21.41 5.088 30.968 14.35 9.561 9.264 18.19 22.69 25.444 39.318 14.508 33.253 23.476 79.22 23.442 130.012-.034 50.793-9.065 96.748-23.618 129.981-7.276 16.618-15.924 30.033-25.497 39.284-9.57 9.249-20.041 14.315-30.987 14.308-10.946-.008-21.41-5.088-30.969-14.35-9.56-9.264-18.189-22.691-25.443-39.318-14.508-33.253-23.476-79.22-23.442-130.013.034-50.792 9.065-96.747 23.617-129.98 7.277-16.618 15.924-30.033 25.497-39.284 9.571-9.249 20.042-14.315 30.988-14.308z"/><path d="M469.701-121.15c11.696.008 22.874 5.437 33.082 15.328 10.21 9.894 19.423 24.23 27.168 41.983 15.489 35.503 25.064 84.577 25.027 138.802-.036 54.224-9.677 103.286-25.214 138.768-7.769 17.741-17.002 32.066-27.226 41.946-10.221 9.877-21.406 15.291-33.103 15.283-11.696-.008-22.874-5.437-33.082-15.328-10.21-9.894-19.424-24.231-27.168-41.983-15.49-35.503-25.064-84.577-25.027-138.802.036-54.225 9.677-103.286 25.214-138.768 7.769-17.742 17.002-32.066 27.226-41.946 10.221-9.877 21.406-15.291 33.103-15.283z"/><path d="M461.254-125.759c12.863.008 25.152 5.979 36.37 16.849 11.221 10.873 21.344 26.626 29.853 46.128 17.016 39.003 27.533 92.91 27.492 152.474-.04 59.564-10.63 113.458-27.699 152.437-8.534 19.491-18.679 35.23-29.914 46.088-11.233 10.855-23.53 16.809-36.393 16.8-12.863-.009-25.153-5.979-36.371-16.85-11.22-10.872-21.343-26.625-29.852-46.127-17.016-39.003-27.533-92.911-27.493-152.475.041-59.563 10.631-113.457 27.699-152.437 8.535-19.49 18.68-35.23 29.915-46.087 11.232-10.855 23.53-16.809 36.393-16.8z"/></g></g><defs><linearGradient id="paint0_linear_243_212" x1="38.113" y1="440.346" x2="278.221" y2="241.74" gradientUnits="userSpaceOnUse"><stop stop-color="#747DEF"/><stop offset="1" stop-color="#5E3BE1"/></linearGradient><linearGradient id="paint1_linear_243_212" x1="384.673" y1="116.652" x2="661.804" y2="180.859" gradientUnits="userSpaceOnUse"><stop stop-color="#747DEF"/><stop offset="1" stop-color="#5E3BE1"/></linearGradient></defs></svg>