<svg width="25" height="53" fill="none" xmlns="http://www.w3.org/2000/svg"><ellipse cx="12.504" cy="26.378" rx="11.85" ry="26.056" fill="url(#paint0_linear_216_788)"/><path d="M18.467 18.182c.234.892.202 1.953-.082 2.77L12.13 38.899c-.258.74-.683 1.117-1.117.934-.425-.18-.763-.861-.88-1.778l-.925-7.243-.097-.753-.248-.56-2.39-5.384c-.302-.681-.402-1.664-.26-2.564.14-.89.492-1.535.926-1.66l10.196-2.937c.464-.134.898.337 1.132 1.228z" fill="#fff"/><path d="M9.208 30.812l.925 7.243c.117.917.455 1.598.88 1.778.434.184.859-.194 1.117-.934l6.254-17.947c.285-.817.317-1.879.083-2.77L9.11 30.059l.097.753z" fill="#fff"/><path d="M12.918 25.226c.096.362.04.826-.126 1.036l-3.584 4.55-.096-.753-.249-.56 3.584-4.551c.166-.21.376-.085.472.278z" fill="url(#paint1_linear_216_788)"/><path d="M9.208 30.812l3.584-4.55c.165-.21.222-.674.126-1.036l-3.807 4.833.097.753z" fill="url(#paint2_linear_216_788)"/><defs><linearGradient id="paint0_linear_216_788" x1="17.463" y1="1.784" x2="-14.896" y2="38.865" gradientUnits="userSpaceOnUse"><stop stop-color="#747DEF"/><stop offset="1" stop-color="#5E3BE1"/></linearGradient><linearGradient id="paint1_linear_216_788" x1="11.627" y1="26.039" x2="12.682" y2="27.002" gradientUnits="userSpaceOnUse"><stop stop-color="#747DEF"/><stop offset="1" stop-color="#5E3BE1"/></linearGradient><linearGradient id="paint2_linear_216_788" x1="11.794" y1="26.677" x2="12.326" y2="27.128" gradientUnits="userSpaceOnUse"><stop stop-color="#747DEF"/><stop offset="1" stop-color="#5E3BE1"/></linearGradient></defs></svg>