<svg width="431" height="303" fill="none" xmlns="http://www.w3.org/2000/svg"><path d="M431 0H24.377v223c0 28.003 0 42.004 5.45 52.7a49.995 49.995 0 0021.85 21.85c10.696 5.45 24.697 5.45 52.7 5.45H351c28.003 0 42.004 0 52.7-5.45a49.99 49.99 0 0021.85-21.85C431 265.004 431 251.003 431 223V0z" fill="#fff"/><g opacity=".1"><mask id="a" style="mask-type:alpha" maskUnits="userSpaceOnUse" x="340" y="0" width="91" height="262"><path d="M340.98.5h89.52v215.938c0 24.72-20.04 44.76-44.76 44.76s-44.76-20.04-44.76-44.76V.5z" fill="url(#paint0_linear_216_1332)" stroke="#6246E5"/></mask><g mask="url(#a)" stroke="#6246E5"><path d="M453.582 132.754c0 18.921-3.533 36.026-9.224 48.382-5.71 12.398-13.499 19.836-21.925 19.836s-16.215-7.438-21.925-19.836c-5.691-12.356-9.224-29.461-9.224-48.382 0-18.92 3.533-36.025 9.224-48.38 5.71-12.4 13.499-19.837 21.925-19.837s16.215 7.437 21.925 19.836c5.691 12.356 9.224 29.461 9.224 48.381z"/><path d="M454.831 125.521c0 21.167-3.952 40.307-10.321 54.135-6.389 13.872-15.114 22.22-24.576 22.22-9.461 0-18.186-8.348-24.575-22.22-6.369-13.828-10.321-32.968-10.321-54.135 0-21.168 3.952-40.307 10.321-54.136 6.389-13.87 15.114-22.219 24.575-22.219 9.462 0 18.187 8.348 24.576 22.22 6.369 13.828 10.321 32.967 10.321 54.135z"/><path d="M456.081 119.644c0 23.165-4.326 44.112-11.298 59.25-6.991 15.18-16.549 24.338-26.931 24.338-10.381 0-19.939-9.158-26.931-24.338-6.971-15.138-11.297-36.085-11.297-59.25s4.326-44.113 11.297-59.25c6.992-15.18 16.55-24.338 26.931-24.338 10.382 0 19.94 9.157 26.931 24.338 6.972 15.137 11.298 36.085 11.298 59.25z"/><path d="M456.914 111.054c0 24.913-4.652 47.443-12.152 63.726-7.519 16.325-17.805 26.191-28.992 26.191-11.186 0-21.473-9.866-28.992-26.191-7.499-16.283-12.151-38.813-12.151-63.726 0-24.913 4.652-47.443 12.151-63.726 7.519-16.325 17.806-26.191 28.992-26.191 11.187 0 21.473 9.866 28.992 26.191 7.5 16.283 12.152 38.813 12.152 63.726z"/><path d="M457.746 102.69c0 26.599-4.966 50.654-12.974 68.042-8.028 17.43-19.017 27.979-30.98 27.979-11.962 0-22.952-10.549-30.98-27.979-8.008-17.388-12.974-41.443-12.974-68.042 0-26.597 4.966-50.653 12.974-68.04 8.028-17.431 19.018-27.98 30.98-27.98 11.963 0 22.952 10.549 30.98 27.98 8.008 17.387 12.974 41.443 12.974 68.04z"/><path d="M458.788 93.197c0 29.219-5.456 55.648-14.256 74.754-8.819 19.148-20.901 30.76-34.071 30.76-13.17 0-25.253-11.612-34.072-30.76-8.799-19.106-14.255-45.535-14.255-74.754 0-29.22 5.456-55.65 14.255-74.755 8.819-19.148 20.902-30.76 34.072-30.76 13.17 0 25.252 11.612 34.071 30.76 8.8 19.106 14.256 45.535 14.256 74.755z"/></g></g><g opacity=".1"><mask id="b" style="mask-type:alpha" maskUnits="userSpaceOnUse" x="-1" y="34" width="166" height="269"><path d="M164.082 34.746V302.5H80c-14.01 0-24.487 0-32.8-.68-8.306-.678-14.407-2.032-19.673-4.715a49.5 49.5 0 01-21.632-21.632c-2.683-5.266-4.037-11.367-4.716-19.674C.5 247.487.5 237.01.5 223V114.246c0-14.01.001-24.487.68-32.8.68-8.306 2.033-14.407 4.716-19.673a49.5 49.5 0 0121.632-21.632c5.266-2.683 11.367-4.037 19.674-4.716 8.312-.679 18.79-.68 32.799-.68h84.082z" fill="url(#paint1_linear_216_1332)" stroke="#6246E5"/></mask><g mask="url(#b)" stroke="#6246E5"><path d="M81.093 372.049c-11.62 0-22.3-10.263-30.105-27.231-7.784-16.925-12.612-40.342-12.612-66.235s4.828-49.31 12.613-66.235c7.803-16.968 18.483-27.231 30.104-27.231 11.62 0 22.3 10.263 30.104 27.231 7.784 16.925 12.612 40.342 12.612 66.235s-4.828 49.31-12.612 66.235c-7.804 16.968-18.484 27.231-30.104 27.231z"/><path d="M85.642 375.758c-13.033 0-24.993-11.508-33.723-30.49-8.71-18.939-14.111-45.138-14.111-74.104 0-28.965 5.4-55.164 14.111-74.103 8.73-18.982 20.69-30.49 33.723-30.49 13.034 0 24.993 11.508 33.723 30.49 8.711 18.939 14.111 45.138 14.111 74.104 0 28.965-5.4 55.164-14.111 74.103-8.73 18.982-20.69 30.49-33.723 30.49z"/><path d="M89.338 379.467c-14.29 0-27.386-12.615-36.94-33.387-9.533-20.729-15.443-49.4-15.443-81.097 0-31.697 5.91-60.368 15.443-81.097 9.554-20.772 22.65-33.387 36.94-33.387s27.387 12.615 36.94 33.387c9.534 20.729 15.443 49.4 15.443 81.097 0 31.697-5.909 60.368-15.443 81.097-9.553 20.772-22.65 33.387-36.94 33.387z"/><path d="M94.74 381.94c-15.389 0-29.48-13.584-39.754-35.922-10.254-22.295-16.61-53.13-16.61-87.217 0-34.087 6.356-64.922 16.61-87.217 10.274-22.338 24.365-35.922 39.754-35.922s29.481 13.584 39.755 35.922c10.254 22.295 16.609 53.13 16.609 87.217 0 34.087-6.355 64.922-16.609 87.217-10.274 22.338-24.366 35.922-39.755 35.922z"/><path d="M100 384.412c-16.449 0-31.5-14.518-42.468-38.366-10.949-23.805-17.734-56.727-17.734-93.118s6.785-69.313 17.734-93.118C68.5 135.961 83.552 121.443 100 121.443c16.449 0 31.5 14.518 42.469 38.367 10.948 23.805 17.733 56.727 17.733 93.118s-6.785 69.313-17.733 93.118c-10.969 23.848-26.02 38.366-42.469 38.366z"/><path d="M105.971 387.504c-18.098 0-34.642-15.971-46.69-42.169-12.03-26.155-19.483-62.322-19.483-102.298s7.454-76.143 19.483-102.298c12.048-26.198 28.592-42.169 46.69-42.169s34.642 15.971 46.69 42.169c12.029 26.155 19.483 62.322 19.483 102.298s-7.454 76.143-19.483 102.298c-12.048 26.198-28.592 42.169-46.69 42.169z"/></g></g><defs><linearGradient id="paint0_linear_216_1332" x1="404.68" y1="7.342" x2="242.209" y2="148.946" gradientUnits="userSpaceOnUse"><stop stop-color="#747DEF"/><stop offset="1" stop-color="#5E3BE1"/></linearGradient><linearGradient id="paint1_linear_216_1332" x1="159.965" y1="224.857" x2="-34.82" y2="177.517" gradientUnits="userSpaceOnUse"><stop stop-color="#747DEF"/><stop offset="1" stop-color="#5E3BE1"/></linearGradient></defs></svg>