<svg width="42" height="79" fill="none" xmlns="http://www.w3.org/2000/svg"><ellipse cx="21.129" cy="39.432" rx="20.177" ry="38.87" fill="url(#paint0_linear_243_186)"/><path d="M31.281 27.205c.399 1.33.345 2.914-.14 4.132L20.491 58.11c-.44 1.104-1.163 1.667-1.902 1.393-.724-.268-1.298-1.285-1.498-2.653l-1.576-10.804-.164-1.124-.423-.835-4.069-8.032c-.515-1.016-.685-2.482-.444-3.825.24-1.326.839-2.29 1.578-2.476l17.36-4.381c.79-.2 1.53.502 1.928 1.832z" fill="#fff"/><path d="M15.515 46.046l1.576 10.804c.2 1.368.774 2.385 1.498 2.653.74.274 1.463-.29 1.902-1.393l10.65-26.773c.485-1.218.539-2.802.14-4.132l-15.93 17.717.164 1.124z" fill="#fff"/><path d="M21.834 37.712c.162.541.066 1.233-.215 1.546l-6.104 6.788-.164-1.124-.423-.836 6.103-6.788c.282-.312.64-.126.803.414z" fill="url(#paint1_linear_243_186)"/><path d="M15.516 46.046l6.103-6.788c.28-.313.377-1.004.215-1.545l-6.483 7.21.165 1.123z" fill="url(#paint2_linear_243_186)"/><defs><linearGradient id="paint0_linear_243_186" x1="29.573" y1="2.744" x2="-17.443" y2="64.24" gradientUnits="userSpaceOnUse"><stop stop-color="#747DEF"/><stop offset="1" stop-color="#5E3BE1"/></linearGradient><linearGradient id="paint1_linear_243_186" x1="19.634" y1="38.926" x2="21.214" y2="40.571" gradientUnits="userSpaceOnUse"><stop stop-color="#747DEF"/><stop offset="1" stop-color="#5E3BE1"/></linearGradient><linearGradient id="paint2_linear_243_186" x1="19.919" y1="39.878" x2="20.724" y2="40.655" gradientUnits="userSpaceOnUse"><stop stop-color="#747DEF"/><stop offset="1" stop-color="#5E3BE1"/></linearGradient></defs></svg>