<svg width="717" height="452" fill="none" xmlns="http://www.w3.org/2000/svg"><path d="M717 50c0-27.614-22.386-50-50-50H40.585v452H667c27.614 0 50-22.386 50-50V50z" fill="#fff"/><g opacity=".1"><mask id="a" style="mask-type:alpha" maskUnits="userSpaceOnUse" x="566" y="0" width="152" height="391"><path d="M566.92 50c0-27.338 22.162-49.5 49.5-49.5H716.5v389.388H616.42c-27.338 0-49.5-22.162-49.5-49.5V50z" fill="url(#paint0_linear_243_156)" stroke="#6246E5"/></mask><g mask="url(#a)" stroke="#6246E5"><path d="M754.897 198.036c0 28.245-5.881 53.79-15.365 72.256-9.498 18.493-22.529 29.753-36.783 29.753-14.254 0-27.285-11.26-36.783-29.753-9.484-18.466-15.365-44.011-15.365-72.256 0-28.244 5.881-53.79 15.365-72.256 9.498-18.493 22.529-29.753 36.783-29.753 14.254 0 27.285 11.26 36.783 29.753 9.484 18.466 15.365 44.012 15.365 72.256z"/><path d="M756.975 187.245c0 31.597-6.579 60.177-17.191 80.84-10.626 20.689-25.216 33.308-41.191 33.308-15.976 0-30.566-12.619-41.192-33.308-10.612-20.663-17.191-49.243-17.191-80.84 0-31.596 6.579-60.177 17.191-80.84 10.626-20.689 25.216-33.308 41.192-33.308 15.975 0 30.565 12.619 41.191 33.308 10.612 20.663 17.191 49.244 17.191 80.84z"/><path d="M759.053 178.478c0 34.576-7.199 65.855-18.814 88.47-11.629 22.642-27.604 36.469-45.11 36.469s-33.481-13.827-45.11-36.469c-11.615-22.615-18.814-53.894-18.814-88.47s7.199-65.854 18.814-88.47c11.629-22.642 27.604-36.468 45.11-36.468s33.481 13.826 45.11 36.468c11.615 22.616 18.814 53.894 18.814 88.47z"/><path d="M760.439 165.664c0 37.184-7.742 70.822-20.235 95.147-12.506 24.35-29.694 39.234-48.539 39.234-18.845 0-36.032-14.884-48.539-39.234-12.492-24.325-20.234-57.963-20.234-95.147 0-37.183 7.742-70.821 20.234-95.146 12.507-24.35 29.694-39.234 48.539-39.234 18.845 0 36.033 14.884 48.539 39.234 12.493 24.325 20.235 57.963 20.235 95.146z"/><path d="M761.824 153.188c0 39.698-8.265 75.612-21.604 101.584-13.352 25.998-31.709 41.901-51.845 41.901s-38.493-15.903-51.845-41.901c-13.339-25.972-21.604-61.886-21.604-101.584 0-39.697 8.265-75.612 21.604-101.584 13.352-25.998 31.709-41.9 51.845-41.9s38.493 15.902 51.845 41.9c13.339 25.972 21.604 61.887 21.604 101.584z"/><path d="M763.556 139.026c0 43.608-9.079 83.063-23.734 111.598-14.669 28.561-34.844 46.049-56.989 46.049-22.145 0-42.32-17.488-56.988-46.049-14.656-28.535-23.735-67.99-23.735-111.598 0-43.609 9.079-83.064 23.735-111.599 14.668-28.56 34.843-46.048 56.988-46.048 22.145 0 42.32 17.488 56.989 46.048 14.655 28.535 23.734 67.99 23.734 111.599z"/></g></g><g opacity=".1"><mask id="b" style="mask-type:alpha" maskUnits="userSpaceOnUse" x="0" y="51" width="274" height="401"><path d="M223.816 51.586c27.338 0 49.5 22.162 49.5 49.5V451.5H.534V101.086c0-27.338 22.162-49.5 49.5-49.5h173.782z" fill="url(#paint1_linear_243_156)" stroke="#6246E5"/></mask><g mask="url(#b)" stroke="#6246E5"><path d="M134.932 555.249c-19.567 0-37.41-15.475-50.39-40.784-12.966-25.282-21-60.244-21-98.889 0-38.645 8.034-73.607 21-98.889 12.98-25.309 30.823-40.784 50.39-40.784s37.409 15.475 50.389 40.784c12.966 25.282 21.001 60.244 21.001 98.889 0 38.645-8.035 73.607-21.001 98.889-12.98 25.309-30.822 40.784-50.389 40.784z"/><path d="M142.499 560.782c-21.918 0-41.888-17.333-56.409-45.646-14.507-28.286-23.494-67.398-23.494-110.627s8.987-82.34 23.494-110.626c14.521-28.313 34.491-45.646 56.409-45.646s41.889 17.333 56.409 45.646c14.507 28.286 23.495 67.397 23.495 110.626s-8.988 82.341-23.495 110.627c-14.52 28.313-34.491 45.646-56.409 45.646z"/><path d="M148.648 566.316c-24.008 0-45.87-18.985-61.76-49.968-15.877-30.956-25.711-73.756-25.711-121.06 0-47.303 9.834-90.104 25.71-121.06 15.891-30.983 37.753-49.968 61.761-49.968 24.007 0 45.87 18.985 61.76 49.968 15.876 30.956 25.711 73.757 25.711 121.06 0 47.304-9.835 90.104-25.711 121.06-15.89 30.983-37.753 49.968-61.76 49.968z"/><path d="M157.634 570.004c-25.836 0-49.354-20.429-66.442-53.748-17.074-33.293-27.65-79.321-27.65-130.19 0-50.868 10.576-96.897 27.65-130.189 17.088-33.319 40.606-53.749 66.442-53.749 25.836 0 49.354 20.43 66.442 53.749 17.075 33.292 27.651 79.321 27.651 130.189 0 50.869-10.576 96.897-27.651 130.19-17.088 33.319-40.606 53.748-66.442 53.748z"/><path d="M166.384 573.693c-27.599 0-52.713-21.824-70.957-57.396-18.23-35.545-29.52-84.686-29.52-138.992 0-54.307 11.29-103.447 29.52-138.993 18.244-35.572 43.358-57.395 70.957-57.395 27.599 0 52.713 21.823 70.957 57.395 18.23 35.546 29.52 84.686 29.52 138.993 0 54.306-11.29 103.447-29.52 138.992-18.244 35.572-43.358 57.396-70.957 57.396z"/><path d="M176.316 578.304c-30.342 0-57.939-23.991-77.98-63.067-20.027-39.05-32.43-93.032-32.43-152.687 0-59.654 12.403-113.636 32.43-152.686 20.041-39.077 47.638-63.068 77.98-63.068 30.342 0 57.939 23.991 77.98 63.068 20.028 39.05 32.43 93.032 32.43 152.686 0 59.655-12.402 113.637-32.43 152.687-20.041 39.076-47.638 63.067-77.98 63.067z"/></g></g><defs><linearGradient id="paint0_linear_243_156" x1="673.217" y1="10.953" x2="428.657" y2="248.643" gradientUnits="userSpaceOnUse"><stop stop-color="#747DEF"/><stop offset="1" stop-color="#5E3BE1"/></linearGradient><linearGradient id="paint1_linear_243_156" x1="266.135" y1="335.43" x2="-53.547" y2="248.79" gradientUnits="userSpaceOnUse"><stop stop-color="#747DEF"/><stop offset="1" stop-color="#5E3BE1"/></linearGradient></defs></svg>