<svg width="744" height="320" fill="none" xmlns="http://www.w3.org/2000/svg"><path d="M743.522 20c0-11.046-8.954-20-20-20H171.053c-71.245 0-129 57.755-129 129v170.969c0 11.045 8.954 20 20 20h661.469c11.046 0 20-8.955 20-20V20z" fill="#fff"/><g opacity=".1"><mask id="a" style="mask-type:alpha" maskUnits="userSpaceOnUse" x="587" y="0" width="157" height="277"><path d="M587.865.5h131.657c12.979 0 23.5 10.521 23.5 23.5v251.854H637.365c-27.338 0-49.5-22.162-49.5-49.5V.5z" fill="url(#paint0_linear_2_504)" stroke="#6246E5"/></mask><g mask="url(#a)" stroke="#6246E5"><path d="M782.841 140.189c0 19.94-6.082 37.974-15.891 51.011-9.809 13.037-23.322 21.054-38.207 21.054-14.885 0-28.398-8.017-38.207-21.054-9.809-13.037-15.891-31.071-15.891-51.011 0-19.941 6.082-37.974 15.891-51.011 9.809-13.037 23.322-21.055 38.207-21.055 14.885 0 28.398 8.018 38.207 21.055 9.809 13.037 15.891 31.07 15.891 51.011z"/><path d="M784.996 132.55c0 22.313-6.805 42.495-17.784 57.088-10.979 14.592-26.109 23.571-42.779 23.571s-31.8-8.979-42.779-23.571c-10.979-14.593-17.785-34.775-17.785-57.088 0-22.313 6.806-42.495 17.785-57.087 10.979-14.592 26.109-23.572 42.779-23.572s31.8 8.98 42.779 23.572c10.979 14.592 17.784 34.774 17.784 57.087z"/><path d="M787.152 126.344c0 24.423-7.449 46.514-19.468 62.489-12.019 15.974-28.586 25.808-46.843 25.808-18.257 0-34.824-9.834-46.843-25.808-12.019-15.975-19.468-38.066-19.468-62.489 0-24.423 7.449-46.514 19.468-62.488 12.019-15.975 28.586-25.81 46.843-25.81 18.257 0 34.824 9.835 46.843 25.81 12.019 15.974 19.468 38.065 19.468 62.488z"/><path d="M788.589 117.273c0 26.268-8.012 50.031-20.941 67.215-12.929 17.184-30.753 27.766-50.399 27.766s-37.469-10.582-50.398-27.766c-12.93-17.184-20.941-40.947-20.941-67.215s8.011-50.03 20.941-67.214c12.929-17.184 30.752-27.767 50.398-27.767 19.646 0 37.47 10.583 50.399 27.767 12.929 17.184 20.941 40.946 20.941 67.214z"/><path d="M790.025 108.441c0 28.048-8.554 53.422-22.361 71.772-13.806 18.35-32.842 29.654-53.827 29.654s-40.021-11.304-53.828-29.654c-13.806-18.35-22.361-43.724-22.361-71.772 0-28.048 8.555-53.421 22.361-71.772 13.807-18.35 32.843-29.654 53.828-29.654s40.021 11.304 53.827 29.654c13.807 18.35 22.361 43.724 22.361 71.772z"/><path d="M791.821 98.416c0 30.816-9.398 58.696-24.57 78.861-15.172 20.164-36.093 32.59-59.161 32.59-23.068 0-43.99-12.426-59.162-32.59-15.171-20.165-24.57-48.045-24.57-78.861 0-30.817 9.399-58.697 24.57-78.861C664.1-.61 685.022-13.035 708.09-13.035c23.068 0 43.989 12.425 59.161 32.59 15.172 20.164 24.57 48.044 24.57 78.86z"/></g></g><g opacity=".1"><mask id="b" style="mask-type:alpha" maskUnits="userSpaceOnUse" x="0" y="36" width="284" height="284"><path transform="rotate(90 283.423 36.663)" fill="url(#paint1_linear_2_504)" stroke="#6246E5" d="M283.423 36.663h282.805v282.923H283.423z"/></mask><g mask="url(#b)" stroke="#6246E5"><path d="M139.894 392.912c-20.395 0-38.897-11.002-52.317-28.864-13.42-17.862-21.736-42.561-21.736-69.864 0-27.303 8.316-52.002 21.736-69.864 13.42-17.862 31.922-28.864 52.317-28.864s38.897 11.002 52.317 28.864c13.421 17.862 21.736 42.561 21.736 69.864 0 27.303-8.315 52.002-21.736 69.864-13.42 17.862-31.922 28.864-52.317 28.864z"/><path d="M147.742 396.829c-22.833 0-43.542-12.317-58.56-32.306-15.018-19.988-24.322-47.625-24.322-78.173 0-30.548 9.304-58.185 24.322-78.173 15.018-19.989 35.727-32.305 58.56-32.305 22.833 0 43.542 12.316 58.56 32.305 15.018 19.988 24.322 47.625 24.322 78.173 0 30.548-9.304 58.185-24.322 78.173-15.018 19.989-35.727 32.306-58.56 32.306z"/><path d="M154.118 400.746c-25 0-47.671-13.486-64.109-35.364-16.438-21.879-26.62-52.127-26.62-85.56 0-33.432 10.182-63.68 26.62-85.559 16.438-21.878 39.109-35.364 64.109-35.364 25 0 47.671 13.486 64.109 35.364 16.438 21.879 26.62 52.127 26.62 85.559 0 33.433-10.182 63.681-26.62 85.56-16.438 21.878-39.109 35.364-64.109 35.364z"/><path d="M163.437 403.357c-26.896 0-51.284-14.509-68.964-38.041-17.681-23.533-28.632-56.066-28.632-92.022s10.95-68.489 28.632-92.021c17.68-23.533 42.068-38.042 68.964-38.042 26.897 0 51.284 14.509 68.965 38.042 17.681 23.532 28.631 56.065 28.631 92.021s-10.95 68.489-28.631 92.022c-17.681 23.532-42.068 38.041-68.965 38.041z"/><path d="M172.511 405.968c-28.724 0-54.768-15.495-73.647-40.622-18.879-25.128-30.57-59.864-30.57-98.254 0-38.389 11.691-73.126 30.57-98.253 18.879-25.127 44.923-40.623 73.647-40.623 28.725 0 54.768 15.496 73.647 40.623 18.879 25.127 30.571 59.864 30.571 98.253 0 38.39-11.692 73.126-30.571 98.254-18.879 25.127-44.922 40.622-73.647 40.622z"/><path d="M182.811 409.233c-31.569 0-60.187-17.03-80.93-44.638-20.743-27.609-33.587-65.772-33.587-107.948 0-42.175 12.844-80.338 33.587-107.947 20.743-27.608 49.361-44.638 80.93-44.638 31.569 0 60.187 17.03 80.93 44.638 20.743 27.609 33.588 65.772 33.588 107.947 0 42.176-12.845 80.339-33.588 107.948-20.743 27.608-49.361 44.638-80.93 44.638z"/></g></g><defs><linearGradient id="paint0_linear_2_504" x1="698.118" y1="7.753" x2="535.2" y2="239.716" gradientUnits="userSpaceOnUse"><stop stop-color="#747DEF"/><stop offset="1" stop-color="#5E3BE1"/></linearGradient><linearGradient id="paint1_linear_2_504" x1="485.208" y1="44.129" x2="363.155" y2="351.544" gradientUnits="userSpaceOnUse"><stop stop-color="#747DEF"/><stop offset="1" stop-color="#5E3BE1"/></linearGradient></defs></svg>