<svg width="50" height="51" fill="none" xmlns="http://www.w3.org/2000/svg"><path d="M50 23.464c0 12.946-11.194 23.44-25 23.44a26.534 26.534 0 01-7.334-1.024c-1.825.99-6.016 2.893-13.066 4.132-.625.107-1.1-.59-.853-1.212 1.106-2.8 2.106-6.53 2.406-9.932C2.325 34.748 0 29.358 0 23.464 0 10.518 11.194.023 25 .023s25 10.495 25 23.44zm-34.375 0c0-.888-.33-1.74-.915-2.368a3.023 3.023 0 00-2.21-.981c-.829 0-1.624.353-2.21.98a3.474 3.474 0 00-.915 2.369c0 .888.33 1.74.915 2.367.586.628 1.381.981 2.21.981s1.624-.353 2.21-.98c.586-.629.915-1.48.915-2.368zm12.5 0c0-.888-.33-1.74-.915-2.368a3.023 3.023 0 00-2.21-.981c-.829 0-1.624.353-2.21.98a3.474 3.474 0 00-.915 2.369c0 .888.33 1.74.915 2.367.586.628 1.381.981 2.21.981s1.624-.353 2.21-.98c.586-.629.915-1.48.915-2.368zm9.375 3.348c.829 0 1.624-.353 2.21-.98.586-.629.915-1.48.915-2.368 0-.888-.33-1.74-.915-2.368a3.023 3.023 0 00-2.21-.981c-.829 0-1.624.353-2.21.98a3.474 3.474 0 00-.915 2.369c0 .888.33 1.74.915 2.367a3.023 3.023 0 002.21.981z" fill="#fff"/></svg>