<svg width="717" height="452" viewBox="0 0 717 452" fill="none" xmlns="http://www.w3.org/2000/svg">
<path d="M717 50C717 22.3858 694.614 0 667 0H40.5853V452H667C694.614 452 717 429.614 717 402V50Z" fill="white"/>
<g opacity="0.1">
<mask id="mask0_243_156" style="mask-type:alpha" maskUnits="userSpaceOnUse" x="566" y="0" width="152" height="391">
<path d="M566.92 50C566.92 22.6619 589.082 0.5 616.42 0.5H716.5V389.888H616.42C589.082 389.888 566.92 367.726 566.92 340.388V50Z" fill="url(#paint0_linear_243_156)" stroke="#6246E5"/>
</mask>
<g mask="url(#mask0_243_156)">
<path d="M754.897 198.036C754.897 226.281 749.016 251.826 739.532 270.292C730.034 288.785 717.003 300.045 702.749 300.045C688.495 300.045 675.464 288.785 665.966 270.292C656.482 251.826 650.601 226.281 650.601 198.036C650.601 169.792 656.482 144.246 665.966 125.78C675.464 107.287 688.495 96.0273 702.749 96.0273C717.003 96.0273 730.034 107.287 739.532 125.78C749.016 144.246 754.897 169.792 754.897 198.036Z" stroke="#6246E5"/>
<path d="M756.975 187.245C756.975 218.842 750.396 247.422 739.784 268.085C729.158 288.774 714.568 301.393 698.593 301.393C682.617 301.393 668.027 288.774 657.401 268.085C646.789 247.422 640.21 218.842 640.21 187.245C640.21 155.649 646.789 127.068 657.401 106.405C668.027 85.716 682.617 73.0972 698.593 73.0972C714.568 73.0972 729.158 85.716 739.784 106.405C750.396 127.068 756.975 155.649 756.975 187.245Z" stroke="#6246E5"/>
<path d="M759.053 178.478C759.053 213.054 751.854 244.333 740.239 266.948C728.61 289.59 712.635 303.417 695.129 303.417C677.623 303.417 661.648 289.59 650.019 266.948C638.404 244.333 631.205 213.054 631.205 178.478C631.205 143.902 638.404 112.624 650.019 90.0083C661.648 67.3664 677.623 53.5398 695.129 53.5398C712.635 53.5398 728.61 67.3664 740.239 90.0083C751.854 112.624 759.053 143.902 759.053 178.478Z" stroke="#6246E5"/>
<path d="M760.439 165.664C760.439 202.848 752.697 236.486 740.204 260.811C727.698 285.161 710.51 300.045 691.665 300.045C672.82 300.045 655.633 285.161 643.126 260.811C630.634 236.486 622.892 202.848 622.892 165.664C622.892 128.481 630.634 94.8426 643.126 70.5183C655.633 46.1678 672.82 31.2844 691.665 31.2844C710.51 31.2844 727.698 46.1678 740.204 70.5183C752.697 94.8426 760.439 128.481 760.439 165.664Z" stroke="#6246E5"/>
<path d="M761.824 153.188C761.824 192.886 753.559 228.8 740.22 254.772C726.868 280.77 708.511 296.673 688.375 296.673C668.239 296.673 649.882 280.77 636.53 254.772C623.191 228.8 614.926 192.886 614.926 153.188C614.926 113.491 623.191 77.576 636.53 51.6041C649.882 25.6061 668.239 9.70361 688.375 9.70361C708.511 9.70361 726.868 25.6061 740.22 51.6041C753.559 77.576 761.824 113.491 761.824 153.188Z" stroke="#6246E5"/>
<path d="M763.556 139.026C763.556 182.634 754.477 222.089 739.822 250.624C725.153 279.185 704.978 296.673 682.833 296.673C660.688 296.673 640.513 279.185 625.845 250.624C611.189 222.089 602.11 182.634 602.11 139.026C602.11 95.4174 611.189 55.9622 625.845 27.4275C640.513 -1.13348 660.688 -18.6211 682.833 -18.6211C704.978 -18.6211 725.153 -1.13348 739.822 27.4275C754.477 55.9622 763.556 95.4174 763.556 139.026Z" stroke="#6246E5"/>
</g>
</g>
<g opacity="0.1">
<mask id="mask1_243_156" style="mask-type:alpha" maskUnits="userSpaceOnUse" x="0" y="51" width="274" height="401">
<path d="M223.816 51.5859C251.154 51.5859 273.316 73.7478 273.316 101.086L273.316 451.5L0.534415 451.5L0.534423 101.086C0.534423 73.7478 22.6963 51.5859 50.0344 51.5859L223.816 51.5859Z" fill="url(#paint1_linear_243_156)" stroke="#6246E5"/>
</mask>
<g mask="url(#mask1_243_156)">
<path d="M134.932 555.249C115.365 555.249 97.5225 539.774 84.5426 514.465C71.5762 489.183 63.5415 454.221 63.5415 415.576C63.5415 376.931 71.5762 341.969 84.5426 316.687C97.5225 291.378 115.365 275.903 134.932 275.903C154.499 275.903 172.341 291.378 185.321 316.687C198.287 341.969 206.322 376.931 206.322 415.576C206.322 454.221 198.287 489.183 185.321 514.465C172.341 539.774 154.499 555.249 134.932 555.249Z" stroke="#6246E5"/>
<path d="M142.499 560.782C120.581 560.782 100.611 543.449 86.0903 515.136C71.5833 486.85 62.5958 447.738 62.5958 404.509C62.5958 361.28 71.5833 322.169 86.0904 293.883C100.611 265.57 120.581 248.237 142.499 248.237C164.417 248.237 184.388 265.57 198.908 293.883C213.415 322.169 222.403 361.28 222.403 404.509C222.403 447.738 213.415 486.85 198.908 515.136C184.388 543.449 164.417 560.782 142.499 560.782Z" stroke="#6246E5"/>
<path d="M148.648 566.316C124.64 566.316 102.778 547.331 86.8878 516.348C71.0114 485.392 61.1769 442.592 61.1769 395.288C61.1769 347.985 71.0114 305.184 86.8879 274.228C102.778 243.245 124.64 224.26 148.648 224.26C172.655 224.26 194.518 243.245 210.408 274.228C226.284 305.184 236.119 347.985 236.119 395.288C236.119 442.592 226.284 485.392 210.408 516.348C194.518 547.331 172.655 566.316 148.648 566.316Z" stroke="#6246E5"/>
<path d="M157.634 570.004C131.798 570.004 108.28 549.575 91.1922 516.256C74.1175 482.963 63.5418 436.935 63.5419 386.066C63.5419 335.198 74.1175 289.169 91.1922 255.877C108.28 222.558 131.798 202.128 157.634 202.128C183.47 202.128 206.988 222.558 224.076 255.877C241.151 289.169 251.727 335.198 251.727 386.066C251.727 436.935 241.151 482.963 224.076 516.256C206.988 549.575 183.47 570.004 157.634 570.004Z" stroke="#6246E5"/>
<path d="M166.384 573.693C138.785 573.693 113.671 551.869 95.4271 516.297C77.197 480.752 65.9066 431.611 65.9066 377.305C65.9066 322.998 77.197 273.858 95.4271 238.312C113.671 202.74 138.785 180.917 166.384 180.917C193.983 180.917 219.097 202.74 237.341 238.312C255.571 273.858 266.861 322.998 266.861 377.305C266.861 431.611 255.571 480.752 237.341 516.297C219.097 551.869 193.983 573.693 166.384 573.693Z" stroke="#6246E5"/>
<path d="M176.316 578.304C145.974 578.304 118.377 554.313 98.3361 515.237C78.3086 476.187 65.9065 422.205 65.9065 362.55C65.9065 302.896 78.3086 248.914 98.3361 209.864C118.377 170.787 145.974 146.796 176.316 146.796C206.658 146.796 234.255 170.787 254.296 209.864C274.324 248.914 286.726 302.896 286.726 362.55C286.726 422.205 274.324 476.187 254.296 515.237C234.255 554.313 206.658 578.304 176.316 578.304Z" stroke="#6246E5"/>
</g>
</g>
<defs>
<linearGradient id="paint0_linear_243_156" x1="673.217" y1="10.9528" x2="428.657" y2="248.643" gradientUnits="userSpaceOnUse">
<stop stop-color="#747DEF"/>
<stop offset="1" stop-color="#5E3BE1"/>
</linearGradient>
<linearGradient id="paint1_linear_243_156" x1="266.135" y1="335.43" x2="-53.5471" y2="248.79" gradientUnits="userSpaceOnUse">
<stop stop-color="#747DEF"/>
<stop offset="1" stop-color="#5E3BE1"/>
</linearGradient>
</defs>
</svg>
